<svg width="214" height="76" viewBox="0 0 214 76" fill="none" xmlns="http://www.w3.org/2000/svg">
<path d="M6.23436 28.5281C5.6103 28.558 5.09025 28.2594 4.67421 27.6324C4.28788 26.9755 4.09472 26.2142 4.09472 25.3484V11.5098C4.09472 10.4349 3.97585 9.64372 3.73811 9.13616C3.53009 8.62859 2.95061 8.18074 1.99965 7.7926C1.67277 7.64332 1.58361 7.40447 1.7322 7.07604C1.85107 6.74762 2.01451 6.52369 2.22253 6.40427C2.46027 6.25498 2.69801 6.19527 2.93575 6.22513C3.29236 6.25498 3.78269 6.34455 4.40675 6.49384C5.03081 6.64312 5.55087 6.82226 5.96691 7.03126C6.82871 7.03126 7.73508 7.03126 8.68604 7.03126C9.6667 7.0014 10.5879 6.95661 11.4497 6.8969C12.9356 6.83719 14.362 6.70283 15.729 6.49384C17.096 6.25498 18.0172 6.04598 18.4927 5.86684C18.8493 5.77727 19.1019 5.76235 19.2505 5.82206C19.4288 5.85192 19.5923 5.97134 19.7408 6.18034C19.8597 6.32962 20.0083 6.58341 20.1866 6.94169C20.3649 7.27011 20.4541 7.52389 20.4541 7.70303C20.4541 7.91203 20.3649 8.1061 20.1866 8.28524C20.038 8.46438 19.9043 8.55395 19.7854 8.55395C18.8939 8.49424 18.0321 8.47931 17.2 8.50916C16.3977 8.50916 15.3278 8.53902 13.9906 8.59873C13.7528 8.59873 13.5002 8.61366 13.2328 8.64352C12.995 8.64352 12.7424 8.64352 12.475 8.64352C11.3457 8.70323 10.3353 8.74802 9.44382 8.77787C8.55231 8.80773 7.63107 8.85252 6.68012 8.91223V24.7214C6.68012 25.1394 6.75441 25.4529 6.903 25.6618C7.0813 25.841 7.46763 25.9156 8.06197 25.8858C9.6667 25.8559 11.3309 25.6917 13.0545 25.3931C14.8078 25.0946 16.472 24.7363 18.047 24.3183C19.6517 23.9003 21.0335 23.4972 22.1925 23.1091C23.3812 22.6911 24.2282 22.3627 24.7333 22.1238C25.2683 21.885 25.5803 21.9745 25.6694 22.3925C25.7883 22.7807 25.61 23.139 25.1345 23.4674C24.7482 23.7062 24.035 24.0347 22.9949 24.4527C21.9845 24.8706 20.7661 25.3185 19.3397 25.7962C17.943 26.2441 16.4571 26.677 14.8821 27.095C13.3071 27.513 11.7618 27.8563 10.2462 28.125C8.76033 28.3937 7.42305 28.5281 6.23436 28.5281ZM28.6114 39.5004C28.2846 39.5004 28.1063 39.3512 28.0765 39.0526C28.0468 38.8137 28.0022 38.3808 27.9428 37.7538C27.9131 37.097 27.8834 36.3953 27.8537 35.6489C27.8239 34.8726 27.8091 34.2009 27.8091 33.6336V6.18034C27.8091 5.25478 27.7645 4.53822 27.6754 4.03066C27.6159 3.52309 27.4228 3.1051 27.0959 2.77667C26.7987 2.41839 26.2638 2.04518 25.4911 1.65705C25.2534 1.50776 25.1345 1.35848 25.1345 1.20919C25.1345 1.05991 25.2385 0.865843 25.4466 0.626991C25.6546 0.35828 25.8775 0.223925 26.1152 0.223925C26.4718 0.223925 26.9176 0.313495 27.4525 0.492635C27.9874 0.671775 28.5074 0.880772 29.0126 1.11963C29.5178 1.32862 29.8893 1.52269 30.127 1.70183C30.4836 1.97054 30.6471 2.26911 30.6174 2.59753C30.5282 3.22453 30.4539 3.80673 30.3945 4.34415C30.3648 4.88157 30.3499 5.50856 30.3499 6.22513V18.4515C31.9249 18.4515 33.3068 18.332 34.4955 18.0932C35.7139 17.8245 36.5608 17.6155 37.0363 17.4662C37.3632 17.3468 37.6009 17.3318 37.7495 17.4214C37.8981 17.511 38.0318 17.6453 38.1507 17.8245C38.2993 18.0335 38.4479 18.347 38.5964 18.7649C38.7747 19.1829 38.8639 19.4964 38.8639 19.7054C38.8639 19.8846 38.7599 20.0488 38.5519 20.1981C38.3736 20.3474 38.2398 20.422 38.1507 20.422C37.0511 20.2727 35.907 20.1981 34.7183 20.1981C33.5594 20.1682 32.3855 20.1533 31.1968 20.1533C31.0483 20.1533 30.8997 20.1533 30.7511 20.1533C30.6322 20.1533 30.4985 20.1533 30.3499 20.1533V33.544C30.3499 34.0217 30.3202 34.6039 30.2608 35.2906C30.231 35.9475 30.1567 36.6043 30.0379 37.2612C29.919 37.8882 29.7407 38.4107 29.503 38.8287C29.2949 39.2765 28.9978 39.5004 28.6114 39.5004Z" fill="#20140E"/>
<path d="M63.9566 42.1875C62.1736 42.1875 60.5986 41.8591 59.2316 41.2023C57.8943 40.5753 56.8393 39.6945 56.0667 38.56C55.294 37.4553 54.9077 36.1714 54.9077 34.7084C54.9077 33.2753 55.3238 31.9915 56.1558 30.8569C56.9879 29.6925 58.1023 28.7819 59.499 28.125C60.8957 27.4383 62.4262 27.095 64.0903 27.095C65.7842 27.095 67.3147 27.3786 68.6817 27.9459C70.0784 28.5132 71.1928 29.3492 72.0248 30.4539C72.8569 31.5586 73.2433 32.917 73.1838 34.5293C73.1838 36.0221 72.7678 37.3508 71.9357 38.5152C71.1036 39.6796 69.9892 40.5753 68.5925 41.2023C67.1958 41.8591 65.6505 42.1875 63.9566 42.1875ZM64.0012 40.1722C65.8437 40.1722 67.3741 39.6796 68.5925 38.6943C69.8406 37.709 70.4944 36.3058 70.5538 34.4845C70.6133 33.3201 70.3458 32.3348 69.7515 31.5287C69.1571 30.6927 68.3548 30.0657 67.3444 29.6477C66.3637 29.1999 65.2642 28.9759 64.0458 28.9759C62.7976 28.9759 61.6833 29.2297 60.7026 29.7373C59.7219 30.215 58.9344 30.8868 58.3401 31.7526C57.7754 32.6185 57.4931 33.5888 57.4931 34.6637C57.4931 36.3655 58.1023 37.709 59.3207 38.6943C60.5689 39.6796 62.129 40.1722 64.0012 40.1722ZM43.0951 25.4827C42.7385 25.7216 42.3819 25.8111 42.0253 25.7514C41.6687 25.6917 41.431 25.5424 41.3121 25.3036C41.2229 25.0647 41.3715 24.8109 41.7578 24.5422C43.4517 23.348 44.9822 22.0044 46.3492 20.5116C47.7459 18.9889 48.9346 17.4662 49.9152 15.9435C50.9256 14.4208 51.7131 13.0175 52.2777 11.7337C52.8721 10.42 53.2287 9.36008 53.3476 8.55395C53.3773 8.22553 53.303 7.94189 53.1247 7.70303C52.9464 7.43432 52.5601 7.24025 51.9657 7.12083C51.6091 7.12083 51.0742 7.16561 50.361 7.25518C49.6775 7.34475 48.9643 7.44925 48.2213 7.56868C47.5081 7.65825 46.9138 7.74782 46.4383 7.83739C45.8737 7.92696 45.4874 7.94189 45.2793 7.88217C45.101 7.7926 44.9079 7.64332 44.6998 7.43432C44.5513 7.28504 44.3432 7.04618 44.0758 6.71776C43.8083 6.38934 43.63 6.15048 43.5409 6.0012C43.4517 5.85192 43.4814 5.67278 43.63 5.46378C43.7786 5.22492 43.9569 5.12043 44.1649 5.15028C45.0564 5.29957 46.0371 5.40407 47.1069 5.46378C48.1768 5.52349 49.2466 5.53842 50.3164 5.50856C51.3862 5.47871 52.3372 5.44885 53.1693 5.41899C54.774 5.32942 56.2747 5.19507 57.6714 5.01593C59.0979 4.83679 60.3905 4.59793 61.5495 4.29937C62.1142 4.17994 62.4856 4.3143 62.6639 4.70243C62.7828 4.91143 62.9017 5.19507 63.0205 5.55335C63.1691 5.88177 63.2434 6.15048 63.2434 6.35948C63.2434 6.53862 63.1394 6.70283 62.9314 6.85212C62.7531 7.0014 62.6342 7.07604 62.5748 7.07604C61.5347 6.98647 60.3757 6.92676 59.0979 6.8969C57.8497 6.86705 56.3044 6.8969 54.462 6.98647C54.9672 7.22533 55.4129 7.49404 55.7992 7.7926C56.2153 8.09117 56.3936 8.35988 56.3341 8.59873C56.245 9.22573 55.9924 10.002 55.5764 10.9276C55.19 11.8233 54.6848 12.8085 54.0608 13.8834C55.4575 15.2269 56.8691 16.3764 58.2955 17.3318C59.7219 18.2574 60.9552 19.0038 61.9953 19.5711C62.3519 19.8398 62.6342 20.3324 62.8422 21.049C63.08 21.7357 63.1543 22.3776 63.0651 22.9747C63.0057 23.3629 62.7382 23.6316 62.2627 23.7809C61.817 23.9003 61.5644 23.9003 61.5049 23.7809C60.9106 22.915 60.1231 21.9447 59.1424 20.8698C58.1618 19.795 57.1365 18.75 56.0667 17.7349C55.0266 16.6899 54.0905 15.8091 53.2584 15.0926C52.04 16.9437 50.5541 18.8097 48.8008 20.6907C47.0772 22.5418 45.1753 24.1392 43.0951 25.4827ZM71.1333 26.6023C70.8659 26.6023 70.7024 26.4531 70.643 26.1545C70.5836 25.8559 70.5241 25.4081 70.4647 24.8109C70.435 24.1839 70.4201 23.542 70.4201 22.8852C70.4201 22.2283 70.4201 21.7058 70.4201 21.3177V13.9282L69.8406 13.9729C68.7114 14.0327 67.805 14.1073 67.1215 14.1969C66.4677 14.2864 65.9031 14.376 65.4276 14.4656C64.9521 14.5552 64.4172 14.6596 63.8229 14.7791C63.2583 14.8985 62.7679 14.8388 62.3519 14.5999C62.1439 14.4805 61.817 14.2566 61.3712 13.9282C60.9552 13.5699 60.7323 13.3161 60.7026 13.1668C60.6729 13.0175 60.7323 12.8235 60.8809 12.5846C61.0592 12.3159 61.2523 12.2114 61.4604 12.2711C61.9656 12.3308 62.8274 12.4055 64.0458 12.495C65.2939 12.5846 66.8986 12.5547 68.86 12.4055L70.4201 12.2711V6.04598C70.4201 5.15028 70.3755 4.44865 70.2864 3.94109C70.227 3.43352 70.0338 3.0006 69.7069 2.64232C69.4097 2.28404 68.9045 1.8959 68.1913 1.47791C67.8941 1.26891 67.8199 1.0002 67.9684 0.671776C68.2359 0.223925 68.5925 0 69.0383 0C69.484 0 70.0784 0.164212 70.8213 0.492635C71.5642 0.821058 72.1734 1.13455 72.6489 1.43312C72.7975 1.52269 72.9312 1.64212 73.0501 1.7914C73.169 1.94068 73.2135 2.1049 73.1838 2.28404C73.0947 2.7916 73.0352 3.29917 73.0055 3.80673C72.9758 4.3143 72.9609 4.88157 72.9609 5.50856V21.0042C72.9609 21.4521 72.9312 21.9895 72.8718 22.6165C72.8421 23.2435 72.7529 23.8704 72.6043 24.4974C72.4855 25.0946 72.3072 25.6021 72.0694 26.0201C71.8317 26.4083 71.5197 26.6023 71.1333 26.6023Z" fill="#20140E"/>
<path d="M92.9257 27.095C91.1724 27.1248 89.6865 26.8113 88.4681 26.1545C87.2794 25.4976 86.373 24.6467 85.749 23.6017C85.1546 22.5269 84.8575 21.4521 84.8575 20.3772C84.8575 19.3024 85.1249 18.2425 85.6598 17.1975C86.1947 16.1226 87.0417 15.2269 88.2007 14.5104C89.3894 13.7639 90.9495 13.3758 92.8811 13.346C95.4665 13.2862 97.4873 13.8983 98.9434 15.1821C100.4 16.466 101.083 18.123 100.994 20.1533C100.964 21.258 100.637 22.3328 100.013 23.3778C99.3892 24.4228 98.4828 25.2886 97.2941 25.9753C96.1352 26.6621 94.679 27.0353 92.9257 27.095ZM109.731 32.0213C109.463 32.1109 109.255 32.1109 109.107 32.0213C108.988 31.9019 108.914 31.7825 108.884 31.6631C108.795 31.3943 108.735 30.9763 108.706 30.4091C108.676 29.8418 108.661 29.2447 108.661 28.6177C108.661 27.9907 108.661 27.4533 108.661 27.0054C108.661 26.7964 108.661 26.6471 108.661 26.5576V6.13555C108.661 5.23985 108.616 4.53822 108.527 4.03066C108.468 3.52309 108.29 3.09017 107.992 2.73189C107.695 2.37361 107.19 1.98547 106.477 1.56748C106.15 1.32862 106.076 1.05991 106.254 0.761344C106.581 0.223923 106.997 -1.78112e-06 107.502 0.089569C108.007 0.149282 108.602 0.34335 109.285 0.671776C109.969 0.970342 110.518 1.25398 110.934 1.52269C111.083 1.61226 111.217 1.73169 111.336 1.88097C111.454 2.03026 111.499 2.19447 111.469 2.37361C111.38 2.88117 111.321 3.38874 111.291 3.8963C111.261 4.40386 111.246 4.97114 111.246 5.59813V16.3913C112.821 16.3913 114.114 16.2868 115.124 16.0778C116.135 15.839 116.878 15.6449 117.353 15.4956C117.68 15.3762 117.918 15.3613 118.066 15.4509C118.245 15.5404 118.393 15.6748 118.512 15.8539C118.631 16.0629 118.75 16.3764 118.869 16.7944C119.017 17.1825 119.092 17.4662 119.092 17.6453C119.092 17.8245 119.003 17.9887 118.824 18.138C118.646 18.2872 118.512 18.3619 118.423 18.3619C117.175 18.2425 115.971 18.1678 114.812 18.138C113.653 18.0782 112.465 18.0484 111.246 18.0484V26.2441C111.246 26.8113 111.202 27.5279 111.113 28.3937C111.053 29.2596 110.905 30.0508 110.667 30.7673C110.459 31.4839 110.147 31.9019 109.731 32.0213ZM92.9257 25.1692C94.6196 25.1095 95.942 24.6169 96.8929 23.6913C97.8439 22.7359 98.364 21.5715 98.4531 20.1981C98.5125 19.5114 98.3491 18.7649 97.9628 17.9588C97.5764 17.1527 96.9672 16.466 96.1352 15.8987C95.3031 15.3016 94.2035 15.0329 92.8366 15.0926C90.9347 15.1523 89.5231 15.7196 88.6018 16.7944C87.7103 17.8394 87.2646 19.0187 87.2646 20.3324C87.2646 21.1684 87.4874 21.9745 87.9332 22.7508C88.4087 23.4972 89.0773 24.0944 89.9391 24.5422C90.8009 24.9901 91.7964 25.1991 92.9257 25.1692ZM96.5809 41.0679C93.6389 41.0679 92.1828 39.6796 92.2125 36.9029V35.2906C92.2125 34.4547 92.0936 33.753 91.8559 33.1857C91.6479 32.5886 91.2021 32.1408 90.5186 31.8422C90.3403 31.7825 90.2214 31.6631 90.162 31.4839C90.1026 31.3048 90.1026 31.1406 90.162 30.9913C90.4592 30.4837 90.8455 30.2449 91.321 30.2747C91.7073 30.3344 92.2274 30.4837 92.8811 30.7226C93.5349 30.9614 94.0847 31.2003 94.5304 31.4391C94.887 31.6481 95.0356 31.9019 94.9762 32.2005C94.9168 32.4095 94.8573 32.7827 94.7979 33.3201C94.7682 33.8575 94.7533 34.38 94.7533 34.8876V36.679C94.7533 37.724 94.9316 38.3957 95.2882 38.6943C95.6745 39.0227 96.1797 39.2019 96.8038 39.2317C97.101 39.2616 97.621 39.2765 98.364 39.2765C99.1366 39.2765 99.9984 39.2616 100.949 39.2317C101.9 39.2019 102.807 39.172 103.668 39.1422C104.56 39.1123 105.288 39.0824 105.853 39.0526C107.398 38.963 108.706 38.8137 109.775 38.6047C110.875 38.3957 111.677 38.2166 112.182 38.0673C112.836 37.8583 113.297 37.9479 113.564 38.336C113.713 38.5749 113.876 38.8585 114.055 39.1869C114.233 39.5154 114.337 39.7841 114.367 39.9931C114.396 40.2021 114.292 40.3961 114.055 40.5753C113.847 40.7843 113.683 40.8888 113.564 40.8888C112.524 40.8291 111.633 40.7843 110.89 40.7544C110.147 40.7544 109.359 40.7544 108.527 40.7544C107.695 40.7843 106.625 40.8291 105.318 40.8888C103.802 40.9485 102.331 40.9933 100.905 41.0231C99.4783 41.053 98.0371 41.0679 96.5809 41.0679ZM83.7431 11.3754C83.2379 11.465 82.8664 11.465 82.6287 11.3754C82.3909 11.2858 82.1681 11.1515 81.96 10.9723C81.6926 10.6738 81.4548 10.4051 81.2468 10.1662C81.0388 9.8975 80.8902 9.68851 80.8011 9.53922C80.7119 9.38994 80.7416 9.19587 80.8902 8.95702C81.0388 8.6883 81.2171 8.58381 81.4251 8.64352C82.1383 8.7928 82.9853 8.8973 83.966 8.95702C84.9763 9.01673 86.0164 9.06151 87.0863 9.09137C88.1858 9.09137 89.211 9.07644 90.162 9.04658C91.1427 9.01673 91.9599 8.98687 92.6137 8.95702C94.8425 8.86744 96.8187 8.74802 98.5423 8.59873C100.296 8.41959 101.752 8.16581 102.911 7.83739C103.238 7.74782 103.475 7.74782 103.624 7.83739C103.772 7.8971 103.906 8.03146 104.025 8.24045C104.144 8.41959 104.248 8.6883 104.337 9.04658C104.456 9.40487 104.515 9.67358 104.515 9.85272C104.515 10.0319 104.411 10.1961 104.203 10.3454C104.025 10.4946 103.891 10.5693 103.802 10.5693C102.732 10.4797 101.395 10.42 99.7904 10.3901C98.2154 10.3603 96.4918 10.3752 94.6196 10.4349C92.7474 10.4946 90.8752 10.5991 89.003 10.7484C87.1308 10.8977 85.3775 11.1067 83.7431 11.3754ZM91.2764 5.46378C90.8009 5.40407 90.1917 5.28464 89.4488 5.1055C88.7059 4.92636 88.0075 4.70243 87.3537 4.43372C86.7297 4.16501 86.2988 3.88137 86.061 3.58281C85.8827 3.40367 85.853 3.13496 85.9719 2.77667C86.1205 2.41839 86.3285 2.26911 86.5959 2.32882C88.0224 2.62739 89.5082 2.82146 91.0535 2.91103C92.5988 3.0006 94.0401 3.01553 95.3774 2.95581C96.7444 2.8961 97.829 2.83639 98.6314 2.77667C98.8394 2.74682 99.0177 2.82146 99.1663 3.0006C99.3446 3.17974 99.4486 3.34395 99.4784 3.49323C99.5081 3.73209 99.4041 4.0008 99.1663 4.29937C98.9286 4.59793 98.676 4.80693 98.4085 4.92636C98.1114 5.04578 97.5319 5.16521 96.6701 5.28464C95.838 5.37421 94.9316 5.44885 93.951 5.50856C92.9703 5.53842 92.0788 5.52349 91.2764 5.46378Z" fill="#20140E"/>
<path d="M140.5 24.8109C140.173 24.8408 139.935 24.7661 139.786 24.587C139.638 24.378 139.549 23.9302 139.519 23.2435L139.296 11.3306C139.266 10.4349 139.177 9.58401 139.029 8.77787C138.88 7.97174 138.39 7.29997 137.558 6.76255C137.29 6.58341 137.246 6.32962 137.424 6.0012C137.751 5.49364 138.182 5.3145 138.717 5.46378C139.133 5.58321 139.578 5.76235 140.054 6.0012C140.529 6.24005 140.945 6.52369 141.302 6.85212C141.718 7.2104 141.896 7.52389 141.837 7.7926C141.777 8.12103 141.748 8.50916 141.748 8.95702C141.748 9.37501 141.748 9.82286 141.748 10.3006C141.748 10.42 141.748 10.5394 141.748 10.6588C141.748 10.7783 141.748 10.8977 141.748 11.0171V12.1368C142.461 12.1368 143.323 12.1368 144.333 12.1368C145.373 12.1069 146.428 12.077 147.498 12.0472C148.598 11.9875 149.608 11.9427 150.529 11.9128C151.48 11.8531 152.223 11.7934 152.758 11.7337V9.80793C152.758 9.6885 152.758 9.58401 152.758 9.49444C152.758 9.37501 152.758 9.25558 152.758 9.13616C152.758 8.2106 152.699 7.41939 152.58 6.76255C152.461 6.07584 152 5.46378 151.198 4.92636C150.96 4.77707 150.916 4.52329 151.064 4.16501C151.302 3.59773 151.733 3.41859 152.357 3.62759C152.832 3.77687 153.293 3.97094 153.739 4.2098C154.214 4.44865 154.645 4.6875 155.031 4.92636C155.418 5.19507 155.596 5.49364 155.566 5.82206C155.388 6.92676 155.299 8.18074 155.299 9.58401L155.21 20.8251C155.21 21.6909 155.106 22.4523 154.898 23.1091C154.719 23.7361 154.288 24.1093 153.605 24.2287C153.278 24.2884 153.055 24.1541 152.936 23.8257C152.847 23.4972 152.788 23.124 152.758 22.706C152.312 22.706 151.614 22.721 150.663 22.7508C149.742 22.7508 148.716 22.7657 147.587 22.7956C146.458 22.7956 145.373 22.8105 144.333 22.8404C143.293 22.8702 142.446 22.9001 141.792 22.93C141.703 23.5271 141.525 23.9749 141.257 24.2735C140.99 24.5721 140.737 24.7512 140.5 24.8109ZM165.596 31.2152C165.328 31.2152 165.165 31.0659 165.106 30.7673C165.046 30.4688 164.987 29.9911 164.927 29.3342C164.897 28.6774 164.883 28.0056 164.883 27.3189C164.883 26.6322 164.883 26.0948 164.883 25.7066V19.5263L163.59 19.5711C162.669 19.6009 161.881 19.6756 161.227 19.795C160.603 19.8846 159.846 20.0339 158.954 20.2429C158.627 20.3026 158.36 20.3324 158.152 20.3324C157.973 20.3026 157.765 20.213 157.528 20.0637C157.29 19.9144 156.978 19.6905 156.592 19.3919C156.205 19.0934 155.982 18.8694 155.923 18.7202C155.863 18.541 155.908 18.347 156.057 18.138C156.205 17.929 156.384 17.8394 156.592 17.8692C157.424 18.0185 158.36 18.1081 159.4 18.138C160.44 18.138 161.866 18.0782 163.679 17.9588L164.883 17.8692V10.4349L163.322 10.4797C162.49 10.5096 161.807 10.5544 161.272 10.6141C160.737 10.6738 160.083 10.7633 159.311 10.8828C159.013 10.9425 158.761 10.9873 158.553 11.0171C158.345 11.0171 158.122 10.9574 157.884 10.838C157.646 10.7186 157.334 10.5394 156.948 10.3006C156.592 10.0617 156.384 9.86765 156.324 9.71836C156.235 9.53922 156.265 9.33022 156.413 9.09137C156.592 8.82266 156.8 8.71816 157.037 8.77787C157.721 8.8973 158.493 8.98687 159.355 9.04658C160.217 9.1063 161.465 9.07644 163.1 8.95702L164.883 8.82266V6.04598C164.883 5.15028 164.838 4.44865 164.749 3.94109C164.689 3.43352 164.511 3.0006 164.214 2.64232C163.917 2.28404 163.412 1.8959 162.698 1.47791C162.372 1.23905 162.297 0.970342 162.476 0.671776C162.743 0.223925 163.085 0 163.501 0C163.947 0 164.541 0.164212 165.284 0.492635C166.056 0.821058 166.681 1.13455 167.156 1.43312C167.513 1.64212 167.676 1.92576 167.646 2.28404C167.557 2.7916 167.498 3.29917 167.468 3.80673C167.438 4.3143 167.423 4.88157 167.423 5.50856V25.3931C167.423 25.8111 167.394 26.3486 167.334 27.0054C167.305 27.6324 167.23 28.2743 167.111 28.9312C166.993 29.588 166.814 30.1404 166.577 30.5882C166.339 31.0062 166.012 31.2152 165.596 31.2152ZM141.837 21.3177C142.461 21.3177 143.293 21.3177 144.333 21.3177C145.373 21.2878 146.458 21.258 147.587 21.2281C148.716 21.1983 149.742 21.1535 150.663 21.0938C151.614 21.0341 152.312 20.9594 152.758 20.8698V13.5699C152.223 13.5699 151.48 13.5699 150.529 13.5699C149.608 13.5699 148.598 13.5848 147.498 13.6147C146.428 13.6445 145.373 13.6744 144.333 13.7042C143.323 13.7341 142.461 13.7639 141.748 13.7938L141.837 21.3177ZM152.491 40.844C151.005 40.844 149.905 40.4708 149.192 39.7244C148.479 38.9779 148.122 37.918 148.122 36.5446V33.9471C148.122 33.0514 148.033 32.3498 147.855 31.8422C147.676 31.3346 147.201 30.9166 146.428 30.5882C146.25 30.5285 146.131 30.4091 146.072 30.2299C146.042 30.0508 146.042 29.8866 146.072 29.7373C146.28 29.1402 146.666 28.8864 147.231 28.9759C147.706 29.0357 148.241 29.1999 148.835 29.4686C149.43 29.7074 149.95 29.9612 150.395 30.2299C150.782 30.4688 150.945 30.7076 150.886 30.9465C150.856 31.1555 150.812 31.5287 150.752 32.0661C150.693 32.5737 150.663 33.0663 150.663 33.544V36.3207C150.663 37.3657 150.841 38.0673 151.198 38.4256C151.584 38.754 152.089 38.9481 152.713 39.0078C153.04 39.0377 153.59 39.0526 154.363 39.0526C155.165 39.0526 156.042 39.0377 156.993 39.0078C157.973 38.9779 158.909 38.9481 159.801 38.9182C160.722 38.8884 161.465 38.8585 162.03 38.8287C163.575 38.7391 164.883 38.5898 165.952 38.3808C167.052 38.1718 167.854 37.9927 168.36 37.8434C169.013 37.6344 169.474 37.724 169.741 38.1121C169.89 38.351 170.053 38.6346 170.232 38.963C170.41 39.2914 170.514 39.5602 170.544 39.7691C170.573 39.9781 170.469 40.1722 170.232 40.3514C170.024 40.5604 169.86 40.6649 169.741 40.6649C168.701 40.6051 167.81 40.5604 167.067 40.5305C166.324 40.5305 165.536 40.5305 164.704 40.5305C163.872 40.5604 162.802 40.6051 161.495 40.6649C159.979 40.7246 158.464 40.7694 156.948 40.7992C155.433 40.8291 153.947 40.844 152.491 40.844Z" fill="#20140E"/>
<path d="M178.963 27.0502C178.458 27.1696 178.102 27.2144 177.894 27.1845C177.715 27.1248 177.478 26.9905 177.18 26.7815C177.002 26.6621 176.764 26.4829 176.467 26.2441C176.17 25.9753 175.903 25.7216 175.665 25.4827C175.427 25.214 175.293 25.0349 175.264 24.9453C175.145 24.8259 175.189 24.6318 175.397 24.3631C175.635 24.0645 175.828 23.9451 175.977 24.0048C176.928 24.2138 178.057 24.378 179.365 24.4974C180.702 24.587 182.158 24.6169 183.733 24.587C185.338 24.587 187.046 24.587 188.859 24.587C190.672 24.5572 192.544 24.5124 194.476 24.4527L194.297 17.9588C193.02 18.0185 191.742 18.0782 190.464 18.138C189.186 18.1678 187.938 18.1529 186.72 18.0932C186.096 18.0633 185.59 17.8095 185.204 17.3318C184.847 16.8243 184.669 16.0778 184.669 15.0926V12.495C184.669 12.077 184.521 11.7635 184.223 11.5545C183.956 11.4053 183.688 11.2261 183.421 11.0171C183.183 10.7783 183.035 10.5842 182.975 10.4349C182.886 10.2856 182.916 10.0319 183.064 9.67357C183.213 9.3153 183.391 9.16601 183.599 9.22573C184.104 9.34515 184.625 9.43472 185.159 9.49444C185.724 9.52429 186.378 9.55415 187.121 9.58401C187.537 9.58401 188.22 9.56908 189.171 9.53922C190.152 9.50937 191.281 9.47951 192.559 9.44965C193.837 9.41979 195.115 9.37501 196.393 9.3153C197.7 9.25558 198.874 9.19587 199.914 9.13616C200.984 9.04659 201.786 8.97194 202.321 8.91223C202.321 8.70323 202.351 8.33002 202.41 7.7926C202.47 7.22532 202.529 6.62819 202.589 6.0012C202.648 5.34435 202.678 4.792 202.678 4.34415C202.678 4.13516 202.633 4.01573 202.544 3.98587C202.455 3.95602 202.381 3.94109 202.321 3.94109C202.262 3.94109 201.548 3.97094 200.181 4.03066C198.844 4.06051 197.076 4.13515 194.877 4.25458C193.064 4.3143 191.326 4.40387 189.662 4.52329C188.027 4.61286 186.824 4.77707 186.051 5.01593C185.724 5.13536 185.457 5.16521 185.249 5.1055C185.07 5.04578 184.862 4.94129 184.625 4.792C184.387 4.61286 184.104 4.37401 183.778 4.07544C183.451 3.74702 183.258 3.50816 183.198 3.35888C183.139 3.2096 183.198 3.01553 183.376 2.77667C183.584 2.50796 183.792 2.40346 184 2.46318C184.357 2.55275 184.922 2.62739 185.694 2.6871C186.467 2.71696 187.329 2.74682 188.28 2.77667C189.231 2.80653 190.167 2.82146 191.088 2.82146C192.009 2.7916 192.826 2.76175 193.54 2.73189C194.58 2.67217 195.679 2.61246 196.838 2.55275C197.997 2.49303 199.082 2.40346 200.092 2.28404C201.132 2.16461 201.95 2.0004 202.544 1.7914C202.782 1.64212 203.049 1.62719 203.346 1.74662L205.62 2.37361C205.947 2.49304 206.036 2.71696 205.887 3.04538C205.828 3.16481 205.709 3.47831 205.531 3.98587C205.382 4.46358 205.204 5.01593 204.996 5.64292C204.817 6.26991 204.654 6.86704 204.505 7.43432C204.357 7.97174 204.253 8.37481 204.193 8.64352C204.461 8.76295 204.758 8.95701 205.085 9.22573C205.441 9.46458 205.62 9.67358 205.62 9.85272C205.62 10.0617 205.501 10.3006 205.263 10.5693C205.055 10.838 204.907 10.9574 204.817 10.9276C204.401 10.8678 203.658 10.838 202.589 10.838C201.519 10.8081 200.271 10.8081 198.844 10.838C197.447 10.8678 196.006 10.9126 194.52 10.9723C193.035 11.0321 191.653 11.1067 190.375 11.1963C189.097 11.256 188.057 11.3157 187.254 11.3754V14.8686C187.254 15.4658 187.329 15.8838 187.477 16.1226C187.626 16.3615 187.997 16.4809 188.592 16.4809C190.226 16.4809 191.742 16.4809 193.139 16.4809C194.565 16.4511 196.095 16.3764 197.73 16.257C199.513 16.1376 200.984 16.0181 202.143 15.8987C203.302 15.7494 204.238 15.5554 204.951 15.3165C205.337 15.1971 205.62 15.1523 205.798 15.1821C205.976 15.1821 206.155 15.3016 206.333 15.5404C206.749 15.9584 207.002 16.3764 207.091 16.7944C207.15 17.0034 207.046 17.2124 206.779 17.4214C206.541 17.6304 206.363 17.7349 206.244 17.7349C205.382 17.705 204.594 17.705 203.881 17.7349C203.168 17.7349 202.425 17.7498 201.652 17.7797C201.058 17.8095 200.419 17.8394 199.736 17.8692C199.052 17.8692 198.28 17.8692 197.418 17.8692H196.927L196.705 24.3631C197.804 24.3332 198.889 24.3034 199.959 24.2735C201.058 24.2437 202.143 24.1989 203.213 24.1392C205.144 24.0496 206.912 23.9152 208.517 23.7361C210.152 23.5569 211.311 23.3629 211.994 23.1539C212.321 23.0345 212.574 23.0195 212.752 23.1091C212.93 23.1987 213.108 23.348 213.287 23.5569C213.435 23.7958 213.584 24.0794 213.733 24.4079C213.911 24.7363 214 25.005 214 25.214C214 25.423 213.896 25.6171 213.688 25.7962C213.48 25.9455 213.331 26.0201 213.242 26.0201C212.143 25.8708 210.924 25.7962 209.587 25.7962C208.25 25.7663 206.972 25.7663 205.753 25.7962C205.427 25.7962 205.115 25.7962 204.817 25.7962C204.52 25.7962 204.223 25.7962 203.926 25.7962C202.589 25.8261 201.118 25.8708 199.513 25.9306C197.908 25.9604 196.259 26.0052 194.565 26.0649C192.901 26.0948 191.296 26.1396 189.751 26.1993C188.235 26.2291 186.868 26.2739 185.65 26.3336C184.312 26.3933 183.079 26.4829 181.95 26.6023C180.85 26.7218 179.855 26.871 178.963 27.0502ZM189.84 40.9336C186.898 40.9336 185.442 39.5751 185.471 36.8581V34.8428C185.471 34.0068 185.353 33.3052 185.115 32.7379C184.907 32.1408 184.461 31.6929 183.778 31.3943C183.599 31.3346 183.48 31.2152 183.421 31.0361C183.362 30.8569 183.362 30.6927 183.421 30.5434C183.718 30.0359 184.104 29.797 184.58 29.8269C184.966 29.8866 185.486 30.0359 186.14 30.2747C186.794 30.5136 187.344 30.7524 187.789 30.9913C188.146 31.2003 188.295 31.4541 188.235 31.7526C188.176 31.9616 188.116 32.3348 188.057 32.8722C188.027 33.4097 188.012 33.9322 188.012 34.4397V36.6342C188.012 37.6792 188.191 38.336 188.547 38.6047C188.934 38.9033 189.439 39.0675 190.063 39.0974C190.36 39.1272 190.895 39.1422 191.668 39.1422C192.44 39.1422 193.302 39.1272 194.253 39.0974C195.234 39.0675 196.17 39.0377 197.061 39.0078C197.953 38.9779 198.681 38.9481 199.245 38.9182C200.791 38.8287 202.173 38.6794 203.391 38.4704C204.639 38.2614 205.516 38.0822 206.021 37.933C206.675 37.724 207.135 37.8135 207.403 38.2017C207.551 38.4405 207.715 38.7242 207.893 39.0526C208.071 39.381 208.175 39.6497 208.205 39.8587C208.235 40.0677 208.131 40.2618 207.893 40.4409C207.685 40.6499 207.522 40.7544 207.403 40.7544C206.363 40.6947 205.427 40.6499 204.594 40.6201C203.792 40.6201 202.93 40.6201 202.009 40.6201C201.118 40.6499 200.018 40.6947 198.71 40.7544C197.195 40.8141 195.694 40.8589 194.208 40.8888C192.752 40.9186 191.296 40.9336 189.84 40.9336Z" fill="#20140E"/>
<path d="M11.532 74.683C11.4112 74.683 11.3453 74.6278 11.3343 74.5175C11.3233 74.4292 11.3068 74.2692 11.2849 74.0375C11.2739 73.7947 11.2629 73.5354 11.2519 73.2595C11.2409 72.9726 11.2355 72.7244 11.2355 72.5147V65.5961L10.4776 65.6292C10.0823 65.6513 9.75277 65.6844 9.48918 65.7286C9.22559 65.7617 8.92905 65.8168 8.59957 65.8941C8.55564 65.9051 8.51171 65.9161 8.46778 65.9272C8.43483 65.9272 8.40737 65.9272 8.3854 65.9272C8.34147 65.9272 8.29754 65.9217 8.25361 65.9106C8.20968 65.8886 8.16026 65.8665 8.10534 65.8444C8.05043 65.8113 7.96805 65.7617 7.85823 65.6955C7.7484 65.6292 7.64955 65.5575 7.56169 65.4803C7.47383 65.403 7.4244 65.3479 7.41342 65.3148C7.40244 65.2486 7.4299 65.1658 7.49579 65.0665C7.56169 64.9562 7.62759 64.912 7.69348 64.9341C7.81429 64.9672 8.001 64.9948 8.25361 65.0168C8.5172 65.0279 8.80275 65.0334 9.11027 65.0334C9.46172 65.0334 9.82416 65.0279 10.1976 65.0168C10.582 64.9948 10.9279 64.9727 11.2355 64.9506V62.3686C11.2355 62.0265 11.219 61.7617 11.186 61.5741C11.1641 61.3865 11.0927 61.232 10.9719 61.1107C10.862 60.9783 10.6643 60.8403 10.3788 60.6969C10.2909 60.6417 10.247 60.5865 10.247 60.5314C10.247 60.4762 10.2854 60.4045 10.3623 60.3162C10.4392 60.2169 10.5216 60.1672 10.6094 60.1672C10.7412 60.1672 10.906 60.2003 11.1037 60.2665C11.3013 60.3327 11.4935 60.41 11.6803 60.4983C11.867 60.5755 12.0042 60.6472 12.0921 60.7134C12.2239 60.8127 12.2843 60.9231 12.2733 61.0445C12.2404 61.2762 12.2129 61.4914 12.191 61.69C12.18 61.8886 12.1745 62.1203 12.1745 62.3851V72.4816C12.1745 72.6582 12.1635 72.8733 12.1415 73.1271C12.1306 73.3699 12.1031 73.6126 12.0592 73.8554C12.0152 74.0871 11.9493 74.2802 11.8615 74.4347C11.7846 74.6002 11.6748 74.683 11.532 74.683ZM0.675445 70.5782C0.554634 70.6554 0.428331 70.6885 0.296537 70.6775C0.164743 70.6665 0.0713885 70.6278 0.0164743 70.5616C-0.0274571 70.4844 0.0164743 70.3961 0.148268 70.2968C0.686428 69.9106 1.20262 69.4527 1.69685 68.923C2.20206 68.3823 2.66883 67.8141 3.09716 67.2182C3.52549 66.6113 3.89342 66.0155 4.20094 65.4306C4.51944 64.8348 4.76106 64.2886 4.92581 63.792C5.04662 63.4169 5.11801 63.0913 5.13997 62.8155C5.16194 62.5286 5.02465 62.2913 4.72812 62.1038C4.58534 62.0045 4.55239 61.8996 4.62927 61.7893C4.72812 61.6348 4.83245 61.552 4.94228 61.541C5.06309 61.5189 5.1839 61.5355 5.30471 61.5907C5.46946 61.6569 5.66166 61.7617 5.88131 61.9051C6.10097 62.0486 6.25473 62.1534 6.34259 62.2196C6.46341 62.33 6.54029 62.4182 6.57323 62.4845C6.60618 62.5507 6.61167 62.6113 6.58971 62.6665C6.47988 62.8541 6.34808 63.1134 6.19432 63.4444C6.05155 63.7755 5.89779 64.1175 5.73305 64.4706C5.62322 64.6913 5.5079 64.912 5.38709 65.1327C5.27726 65.3424 5.16194 65.5575 5.04113 65.7782C5.7001 66.4844 6.26022 67.0251 6.7215 67.4003C7.19376 67.7644 7.62759 68.0568 8.02297 68.2775C8.12181 68.3437 8.21517 68.4761 8.30303 68.6747C8.40188 68.8623 8.47876 69.0609 8.53367 69.2706C8.58859 69.4802 8.59408 69.6568 8.55015 69.8002C8.50621 69.9327 8.40188 70.032 8.23713 70.0982C8.08337 70.1534 7.98453 70.1534 7.9406 70.0982C7.74291 69.7892 7.49579 69.4471 7.19926 69.072C6.90272 68.6858 6.5952 68.3051 6.2767 67.9299C5.95819 67.5547 5.66166 67.2182 5.38709 66.9203C5.11251 66.6223 4.89835 66.4017 4.74459 66.2582C4.18446 67.141 3.55295 67.9685 2.85005 68.741C2.14715 69.5023 1.42228 70.1147 0.675445 70.5782Z" fill="#20140E"/>
<path d="M16.7727 68.9561C16.6629 68.9782 16.5805 68.9506 16.5256 68.8734C16.4817 68.7961 16.4487 68.6858 16.4268 68.5423C16.3938 68.1672 16.3609 67.7534 16.3279 67.301C16.295 66.8375 16.262 66.3796 16.2291 65.9272C16.2071 65.4748 16.1797 65.072 16.1467 64.7189C16.1247 64.3658 16.1028 64.1065 16.0808 63.941C16.0259 63.5658 15.9435 63.29 15.8337 63.1134C15.7239 62.9369 15.5262 62.7603 15.2406 62.5838C15.1637 62.5396 15.1363 62.4513 15.1583 62.3189C15.2791 62.0982 15.4438 62.0155 15.6525 62.0707C15.7733 62.0927 15.9325 62.1313 16.1302 62.1865C16.3279 62.2417 16.4982 62.2969 16.6409 62.352C17.0473 62.352 17.5251 62.3465 18.0742 62.3355C18.6233 62.3134 19.1395 62.2803 19.6228 62.2362C19.9852 62.2141 20.2872 62.181 20.5289 62.1369C20.7815 62.0817 20.9737 62.0265 21.1055 61.9713C21.1933 61.9382 21.2812 61.9382 21.3691 61.9713C21.5009 62.0265 21.6272 62.0707 21.748 62.1038C21.8798 62.1258 22.028 62.1644 22.1928 62.2196C22.2367 62.2417 22.2751 62.2748 22.3081 62.3189C22.352 62.352 22.3575 62.4072 22.3246 62.4845C22.1928 62.7603 22.0775 63.3451 21.9786 64.2389L21.6162 67.4665C21.6821 67.5106 21.7809 67.5879 21.9127 67.6982C22.0445 67.8085 22.1104 67.9023 22.1104 67.9796C22.1104 68.0678 22.072 68.1451 21.9951 68.2113C21.9182 68.2775 21.8633 68.3051 21.8303 68.2941C21.7095 68.283 21.5009 68.2775 21.2043 68.2775C20.9078 68.2665 20.5673 68.2665 20.1829 68.2775C19.8095 68.2775 19.4251 68.283 19.0297 68.2941C18.6453 68.3051 18.2884 68.3216 17.9589 68.3437C17.6404 68.3547 17.3878 68.3658 17.2011 68.3768C17.1791 68.5534 17.1242 68.6913 17.0363 68.7906C16.9485 68.8789 16.8606 68.934 16.7727 68.9561ZM17.1846 67.7148C17.3823 67.7148 17.6404 67.7148 17.9589 67.7148C18.2774 67.7037 18.6179 67.6927 18.9803 67.6816C19.3537 67.6706 19.7106 67.6541 20.0511 67.632C20.3916 67.6099 20.6771 67.5823 20.9078 67.5492C20.9737 66.5782 21.0176 65.6955 21.0396 64.901C21.0725 64.0955 21.0945 63.4555 21.1055 62.981C21.1055 62.8927 21.089 62.8431 21.056 62.832C21.0341 62.81 21.0121 62.7989 20.9901 62.7989C20.7046 62.7989 20.3202 62.8155 19.837 62.8486C19.3647 62.8707 18.8705 62.8982 18.3543 62.9313C17.8381 62.9534 17.3823 62.9755 16.9869 62.9975L17.1846 67.7148ZM25.9324 71.6209C25.8336 71.6209 25.7732 71.5658 25.7512 71.4554C25.7292 71.3451 25.7073 71.1685 25.6853 70.9258C25.6743 70.683 25.6688 70.4347 25.6688 70.1809C25.6688 69.9271 25.6688 69.7285 25.6688 69.5851V67.2182L25.1087 67.2348C24.7682 67.2458 24.4772 67.2734 24.2356 67.3175C24.0049 67.3506 23.7249 67.4058 23.3954 67.483C23.2746 67.5051 23.1757 67.5161 23.0989 67.5161C23.033 67.5051 22.9561 67.472 22.8682 67.4168C22.7804 67.3617 22.665 67.2789 22.5223 67.1685C22.3795 67.0582 22.2971 66.9754 22.2751 66.9203C22.2532 66.8541 22.2696 66.7823 22.3246 66.7051C22.3795 66.6279 22.4454 66.5948 22.5223 66.6058C22.8298 66.661 23.1757 66.6941 23.5601 66.7051C23.9445 66.7051 24.4717 66.683 25.1417 66.6389L25.6688 66.6058V63.7755L25.0922 63.792C24.7847 63.8031 24.5321 63.8196 24.3344 63.8417C24.1367 63.8637 23.8951 63.8969 23.6096 63.941C23.4997 63.9631 23.4064 63.9796 23.3295 63.9906C23.2526 63.9906 23.1702 63.9686 23.0824 63.9244C22.9945 63.8803 22.8792 63.8141 22.7364 63.7258C22.6046 63.6375 22.5277 63.5658 22.5058 63.5106C22.4728 63.4444 22.4838 63.3672 22.5387 63.2789C22.6046 63.1796 22.6815 63.141 22.7694 63.1631C23.022 63.2072 23.3075 63.2403 23.626 63.2624C23.9445 63.2844 24.4058 63.2734 25.0099 63.2293L25.6688 63.1796V62.3189C25.6688 61.9879 25.6524 61.7286 25.6194 61.541C25.5975 61.3534 25.5316 61.1934 25.4217 61.061C25.3119 60.9286 25.1252 60.7852 24.8616 60.6307C24.7408 60.5424 24.7133 60.4431 24.7792 60.3327C24.8781 60.1672 25.0044 60.0845 25.1581 60.0845C25.3229 60.0845 25.5425 60.1452 25.8171 60.2665C26.1027 60.3879 26.3333 60.5038 26.509 60.6141C26.6408 60.6914 26.7012 60.7962 26.6902 60.9286C26.6573 61.1162 26.6353 61.3038 26.6243 61.4914C26.6134 61.6789 26.6079 61.8886 26.6079 62.1203V69.4692C26.6079 69.6237 26.5969 69.8223 26.5749 70.0651C26.5639 70.2968 26.5365 70.534 26.4926 70.7768C26.4486 71.0195 26.3827 71.2237 26.2949 71.3892C26.207 71.5437 26.0862 71.6209 25.9324 71.6209ZM21.089 75.1795C20.5399 75.1795 20.1335 75.0361 19.8699 74.7492C19.6063 74.4623 19.4745 74.065 19.4745 73.5575V72.4651C19.4745 72.112 19.4416 71.8416 19.3757 71.654C19.3098 71.4664 19.134 71.312 18.8485 71.1906C18.7826 71.1685 18.7387 71.1244 18.7167 71.0582C18.7057 70.992 18.7057 70.9313 18.7167 70.8761C18.7936 70.6554 18.9364 70.5616 19.145 70.5947C19.3208 70.6168 19.5184 70.6775 19.7381 70.7768C19.9578 70.8651 20.15 70.9589 20.3147 71.0582C20.4575 71.1464 20.5179 71.2347 20.4959 71.323C20.4849 71.4002 20.4685 71.5382 20.4465 71.7368C20.4245 71.9354 20.4135 72.1285 20.4135 72.3161V73.4747C20.4135 73.8609 20.4794 74.1257 20.6112 74.2692C20.754 74.4016 20.9407 74.4788 21.1714 74.5009C21.3032 74.5119 21.5118 74.5175 21.7974 74.5175C22.0939 74.5175 22.4179 74.5119 22.7694 74.5009C23.1208 74.4899 23.4613 74.4788 23.7908 74.4678C24.1312 74.4568 24.4058 74.4457 24.6145 74.4347C25.1856 74.4016 25.6688 74.3464 26.0642 74.2692C26.4706 74.1919 26.7671 74.1257 26.9538 74.0706C27.1955 73.9933 27.3657 74.0264 27.4645 74.1699C27.5195 74.2581 27.5799 74.363 27.6458 74.4844C27.7117 74.6057 27.7501 74.705 27.7611 74.7823C27.7721 74.8595 27.7336 74.9312 27.6458 74.9975C27.5689 75.0747 27.5085 75.1133 27.4645 75.1133C27.0801 75.0912 26.7507 75.0747 26.4761 75.0637C26.2015 75.0637 25.9105 75.0637 25.6029 75.0637C25.2954 75.0747 24.9 75.0912 24.4168 75.1133C23.8567 75.1354 23.2965 75.1519 22.7364 75.163C22.1763 75.174 21.6272 75.1795 21.089 75.1795Z" fill="#20140E"/>
<path d="M38.4509 74.1037C38.3741 74.1368 38.3137 74.1368 38.2697 74.1037C38.2258 74.0595 38.1983 74.0209 38.1874 73.9878C38.1654 73.8995 38.1434 73.734 38.1215 73.4913C38.0995 73.2485 38.083 72.9837 38.072 72.6968C38.072 72.4099 38.072 72.1561 38.072 71.9354V66.043C37.8194 66.0651 37.5119 66.0872 37.1495 66.1092C36.798 66.1203 36.4685 66.1368 36.161 66.1589C36.1171 66.7106 35.9468 67.2017 35.6503 67.632C35.3648 68.0623 34.9859 68.4044 34.5136 68.6582C34.0413 68.912 33.5087 69.0499 32.9156 69.072C32.3445 69.083 31.8063 68.9671 31.3011 68.7244C30.8069 68.4706 30.406 68.112 30.0985 67.6485C29.802 67.1741 29.6537 66.6223 29.6537 65.9934C29.6537 65.3975 29.7965 64.8624 30.082 64.3879C30.3676 63.9134 30.752 63.5327 31.2352 63.2458C31.7294 62.9479 32.2731 62.7934 32.8662 62.7824C33.7558 62.7603 34.5026 62.97 35.1067 63.4113C35.7107 63.8527 36.0567 64.5203 36.1445 65.4141C36.4081 65.4361 36.7157 65.4472 37.0671 65.4472C37.4186 65.4361 37.7535 65.4141 38.072 65.381V63.2955C38.072 63.2513 38.072 63.2127 38.072 63.1796C38.072 63.1465 38.072 63.1079 38.072 63.0638C38.072 62.6334 38.0446 62.2913 37.9897 62.0376C37.9347 61.7727 37.7371 61.5355 37.3966 61.3258C37.2868 61.2486 37.2593 61.1493 37.3142 61.0279C37.3801 60.9176 37.446 60.8458 37.5119 60.8127C37.5888 60.7796 37.6767 60.7686 37.7755 60.7796C37.8963 60.7907 38.0336 60.8348 38.1874 60.912C38.3411 60.9893 38.4839 61.072 38.6157 61.1603C38.7475 61.2486 38.8353 61.3148 38.8793 61.3589C39.0001 61.4803 39.055 61.5851 39.044 61.6734C39.0111 61.8831 38.9891 62.1148 38.9781 62.3686C38.9781 62.6113 38.9781 62.8486 38.9781 63.0803C38.9781 63.1244 38.9781 63.1686 38.9781 63.2127C38.9781 63.2458 38.9781 63.2789 38.9781 63.312V71.9023C38.9781 72.134 38.9671 72.4154 38.9452 72.7464C38.9232 73.0775 38.8738 73.3754 38.7969 73.6402C38.72 73.905 38.6047 74.0595 38.4509 74.1037ZM32.9485 68.2941C33.6185 68.272 34.1566 68.0513 34.563 67.632C34.9804 67.2017 35.1945 66.6223 35.2055 65.8941C35.2165 65.0775 35.0023 64.4762 34.563 64.09C34.1237 63.6927 33.5636 63.4996 32.8826 63.5106C32.2237 63.5327 31.6855 63.77 31.2682 64.2224C30.8508 64.6637 30.6421 65.2486 30.6421 65.9768C30.6421 66.7713 30.8673 67.3561 31.3176 67.7313C31.7679 68.1065 32.3115 68.2941 32.9485 68.2941ZM40.955 74.6664C40.8782 74.6995 40.8177 74.694 40.7738 74.6499C40.7299 74.6168 40.7024 74.5837 40.6914 74.5506C40.6695 74.4623 40.6475 74.2968 40.6255 74.054C40.6036 73.8113 40.5871 73.5464 40.5761 73.2595C40.5761 72.9726 40.5761 72.7188 40.5761 72.4982V62.3851C40.5761 62.3631 40.5761 62.3244 40.5761 62.2693C40.5761 61.9603 40.5651 61.7176 40.5432 61.541C40.5212 61.3645 40.4608 61.2155 40.362 61.0941C40.2631 60.9617 40.0874 60.8183 39.8348 60.6638C39.714 60.5755 39.6865 60.4762 39.7524 60.3658C39.8732 60.1672 40.0215 60.0845 40.1972 60.1176C40.3949 60.1507 40.6146 60.2334 40.8562 60.3658C41.0978 60.49 41.279 60.5976 41.3998 60.6969C41.4548 60.752 41.4987 60.8072 41.5316 60.8624C41.5756 60.9065 41.592 60.9617 41.5811 61.0279C41.5481 61.2596 41.5261 61.4803 41.5152 61.69C41.5042 61.8996 41.4987 62.1369 41.4987 62.4017V72.4651C41.4987 72.6968 41.4822 72.9782 41.4493 73.3092C41.4273 73.6402 41.3779 73.9381 41.301 74.203C41.2241 74.4678 41.1088 74.6223 40.955 74.6664Z" fill="#20140E"/>
<path d="M54.0514 75.7257C53.8428 75.7588 53.7219 75.6043 53.689 75.2623L53.4419 71.9851C53.4199 71.6099 53.3595 71.3395 53.2607 71.174C53.1618 71.0085 52.9696 70.854 52.6841 70.7106C52.5742 70.6775 52.5468 70.5837 52.6017 70.4292C52.6456 70.3078 52.706 70.2361 52.7829 70.214C52.8598 70.1809 52.9422 70.1699 53.03 70.1809C53.1508 70.203 53.3101 70.2361 53.5078 70.2803C53.7055 70.3244 53.8812 70.3685 54.035 70.4127C54.1448 70.4127 54.3644 70.4127 54.6939 70.4127C55.0344 70.4016 55.4188 70.3961 55.8471 70.3961C56.2755 70.3851 56.6928 70.374 57.0992 70.363C57.5165 70.3409 57.857 70.3189 58.1206 70.2968C58.4061 70.2747 58.6752 70.2471 58.9278 70.214C59.1804 70.1809 59.3671 70.1368 59.4879 70.0816C59.4989 70.0706 59.5154 70.0596 59.5374 70.0485C59.6033 70.0265 59.6692 70.0265 59.7351 70.0485L60.6082 70.2637C60.707 70.2858 60.74 70.363 60.707 70.4954C60.6741 70.6278 60.6356 70.8375 60.5917 71.1244C60.5478 71.4002 60.5093 71.654 60.4764 71.8857C60.4544 72.0623 60.4215 72.294 60.3775 72.5809C60.3446 72.8568 60.3117 73.1437 60.2787 73.4416C60.2458 73.7285 60.2183 73.9768 60.1963 74.1864C60.2732 74.2416 60.3775 74.3243 60.5093 74.4347C60.6521 74.545 60.7235 74.6388 60.7235 74.7161C60.7235 74.7933 60.6851 74.8761 60.6082 74.9643C60.5313 75.0637 60.4819 75.1133 60.4599 75.1133C60.0755 75.0802 59.6088 75.0581 59.0596 75.0471C58.5215 75.0471 57.9613 75.0526 57.3792 75.0637C56.8081 75.0747 56.2645 75.0857 55.7483 75.0968C55.2431 75.1188 54.8257 75.1354 54.4962 75.1464C54.4743 75.323 54.4194 75.4554 54.3315 75.5437C54.2436 75.643 54.1503 75.7037 54.0514 75.7257ZM54.4798 74.4678C54.5127 74.4678 54.661 74.4678 54.9246 74.4678C55.1882 74.4678 55.5176 74.4623 55.913 74.4512C56.3194 74.4512 56.7422 74.4457 57.1815 74.4347C57.6318 74.4237 58.0547 74.4071 58.4501 74.385C58.8564 74.363 59.1859 74.3409 59.4385 74.3188L59.5868 71.0251C59.5868 70.9478 59.5703 70.9037 59.5374 70.8927C59.5044 70.8816 59.4715 70.8761 59.4385 70.8761C59.4275 70.8761 59.422 70.8761 59.422 70.8761C59.1914 70.8871 58.8619 70.8982 58.4336 70.9092C58.0053 70.9202 57.5385 70.9368 57.0333 70.9589C56.5281 70.9699 56.0338 70.9809 55.5506 70.992C55.0673 71.003 54.661 71.014 54.3315 71.0251L54.4798 74.4678ZM51.4156 68.2444C51.1849 68.2444 50.9982 68.1285 50.8554 67.8968C50.7126 67.6541 50.6413 67.3727 50.6413 67.0527V63.8417C50.6413 63.4886 50.5918 63.2072 50.493 62.9975C50.3941 62.7769 50.1855 62.5893 49.867 62.4348C49.7462 62.3796 49.7132 62.2913 49.7681 62.17C49.8889 61.9493 50.0372 61.85 50.2129 61.872C50.3337 61.8941 50.493 61.9327 50.6907 61.9879C50.8884 62.032 51.0641 62.0817 51.2179 62.1369C51.5034 62.1479 51.8713 62.1479 52.3216 62.1369C52.7719 62.1258 53.2387 62.1038 53.7219 62.0707C54.2052 62.0376 54.65 61.9934 55.0564 61.9382C55.4627 61.8831 55.7648 61.8169 55.9624 61.7396C56.0942 61.6955 56.1876 61.6844 56.2425 61.7065C56.3084 61.7286 56.3688 61.7782 56.4237 61.8555C56.4677 61.9107 56.5226 61.9989 56.5885 62.1203C56.6544 62.2417 56.6873 62.3355 56.6873 62.4017C56.6873 62.4789 56.6544 62.5507 56.5885 62.6169C56.5336 62.6831 56.4841 62.7162 56.4402 62.7162C56.0668 62.6831 55.6 62.672 55.0399 62.6831C54.4798 62.6941 53.8922 62.7107 53.2771 62.7327C52.6621 62.7548 52.091 62.7824 51.5638 62.8155V66.7548C51.5638 66.7658 51.5638 66.7823 51.5638 66.8044C51.5638 66.9368 51.5803 67.0582 51.6132 67.1685C51.6462 67.2789 51.767 67.3341 51.9757 67.3341C52.6896 67.323 53.3925 67.2679 54.0844 67.1685C54.7763 67.0692 55.4243 66.9479 56.0283 66.8044C56.6324 66.661 57.1651 66.512 57.6263 66.3575C58.0876 66.203 58.4446 66.0651 58.6972 65.9437C58.9058 65.8665 59.0212 65.8941 59.0431 66.0265C59.0761 66.1589 59.0047 66.2968 58.829 66.4403C58.6862 66.5617 58.4116 66.6996 58.0053 66.8541C57.5989 67.0085 57.1102 67.1685 56.539 67.3341C55.9789 67.4996 55.3858 67.6541 54.7598 67.7975C54.1448 67.9299 53.5462 68.0403 52.9641 68.1285C52.382 68.2058 51.8658 68.2444 51.4156 68.2444ZM59.8668 69.2044C59.768 69.2044 59.7076 69.1492 59.6856 69.0389C59.6637 68.9285 59.6417 68.763 59.6197 68.5423C59.6088 68.3216 59.6033 68.0954 59.6033 67.8637C59.6033 67.621 59.6033 67.4279 59.6033 67.2844V62.3189C59.6033 61.9879 59.5868 61.7286 59.5538 61.541C59.5319 61.3534 59.4605 61.1934 59.3397 61.061C59.2298 60.9286 59.0431 60.7852 58.7795 60.6307C58.6697 60.5534 58.6423 60.4541 58.6972 60.3327C58.796 60.1672 58.9278 60.0845 59.0926 60.0845C59.2573 60.0845 59.477 60.1452 59.7515 60.2665C60.0261 60.3879 60.2513 60.5038 60.427 60.6141C60.4819 60.6472 60.5313 60.6914 60.5752 60.7465C60.6192 60.8017 60.6356 60.8624 60.6247 60.9286C60.5917 61.1162 60.5698 61.3038 60.5588 61.4914C60.5478 61.6789 60.5423 61.8886 60.5423 62.1203V65.0168C61.1024 65.0168 61.5692 64.9782 61.9426 64.901C62.316 64.8127 62.5961 64.741 62.7828 64.6858C62.9036 64.6417 62.9915 64.6362 63.0464 64.6693C63.1013 64.7024 63.1507 64.7575 63.1946 64.8348C63.2386 64.901 63.288 65.0113 63.3429 65.1658C63.3978 65.3092 63.4253 65.4141 63.4253 65.4803C63.4253 65.5465 63.3868 65.6072 63.31 65.6623C63.2441 65.7175 63.1947 65.7451 63.1617 65.7451C62.7224 65.701 62.2886 65.6734 61.8602 65.6623C61.4429 65.6403 61.0036 65.6292 60.5423 65.6292V67.1685C60.5423 67.3341 60.5313 67.5327 60.5093 67.7644C60.4984 67.9851 60.4654 68.2058 60.4105 68.4265C60.3666 68.6472 60.3007 68.8347 60.2128 68.9892C60.1249 69.1327 60.0096 69.2044 59.8668 69.2044Z" fill="#20140E"/>
<path d="M65.7304 72.614C65.5327 72.6582 65.4009 72.6747 65.335 72.6637C65.2691 72.6416 65.1813 72.5919 65.0714 72.5147C65.0055 72.4706 64.9177 72.3988 64.8078 72.2995C64.698 72.2002 64.5992 72.1064 64.5113 72.0182C64.4234 71.9189 64.3685 71.8471 64.3466 71.803C64.3136 71.7478 64.3301 71.6706 64.396 71.5713C64.4729 71.472 64.5497 71.4333 64.6266 71.4554C64.9781 71.5327 65.368 71.5933 65.7963 71.6375C66.2356 71.6706 66.7463 71.6816 67.3284 71.6706H69.5689L69.5854 68.9892C69.5854 68.7575 69.5744 68.5203 69.5524 68.2775C69.5305 68.0347 69.4755 67.8085 69.3877 67.5989C69.2998 67.3782 69.1516 67.2072 68.9429 67.0858C68.8221 67.0196 68.8056 66.9203 68.8935 66.7879C69.0033 66.6113 69.1625 66.5506 69.3712 66.6058C69.536 66.661 69.7007 66.7382 69.8654 66.8375C70.0412 66.9368 70.2004 67.0416 70.3432 67.152C70.5079 67.2734 70.5793 67.3782 70.5574 67.4665C70.4805 67.7534 70.4366 68.123 70.4256 68.5754L70.3597 71.654C71.6007 71.632 72.8692 71.5989 74.1652 71.5547C74.8791 71.5327 75.5326 71.483 76.1257 71.4058C76.7187 71.3285 77.1361 71.2458 77.3777 71.1575C77.4985 71.1244 77.5919 71.1244 77.6578 71.1575C77.7237 71.1796 77.7896 71.2347 77.8555 71.323C77.9214 71.4113 77.9873 71.5271 78.0531 71.6706C78.13 71.803 78.1685 71.9133 78.1685 72.0016C78.1685 72.0788 78.13 72.1451 78.0531 72.2002C77.9763 72.2554 77.9159 72.283 77.8719 72.283C77.3667 72.2389 76.7956 72.2168 76.1586 72.2168C75.5326 72.2057 74.9615 72.2002 74.4453 72.2002C73.7863 72.2113 73.0724 72.2278 72.3036 72.2499C71.5348 72.2609 70.777 72.2719 70.0302 72.283C69.2943 72.294 68.6244 72.3161 68.0203 72.3492C67.5371 72.3713 67.1142 72.4044 66.7518 72.4485C66.3894 72.4926 66.0489 72.5478 65.7304 72.614ZM73.8687 69.1713C73.7039 69.1713 73.66 69.0168 73.7369 68.7078C73.7698 68.5423 73.8138 68.2885 73.8687 67.9465C73.9346 67.5934 74.0005 67.1906 74.0664 66.7382C74.1433 66.2748 74.2147 65.8003 74.2805 65.3148C74.3574 64.8293 74.4233 64.3658 74.4782 63.9244C74.5331 63.472 74.5661 63.0803 74.5771 62.7493C74.5881 62.661 74.5661 62.6113 74.5112 62.6003C74.4563 62.5893 74.4178 62.5838 74.3959 62.5838C74.3849 62.5838 74.3794 62.5838 74.3794 62.5838C74.2476 62.5838 74.017 62.5948 73.6875 62.6169C73.369 62.6279 73.012 62.65 72.6166 62.6831C72.2322 62.7051 71.8753 62.7272 71.5458 62.7493C71.2273 62.7603 71.0022 62.7658 70.8704 62.7658C70.5519 62.7769 70.2059 62.7934 69.8325 62.8155C69.4591 62.8375 69.1021 62.8651 68.7617 62.8982C68.4322 62.9313 68.1576 62.97 67.938 63.0141C67.7293 63.0693 67.5755 63.0803 67.4767 63.0472C67.3778 63.0141 67.279 62.9589 67.1801 62.8817C67.0703 62.7934 66.9605 62.7051 66.8506 62.6169C66.7518 62.5176 66.6914 62.4403 66.6694 62.3851C66.6365 62.33 66.6475 62.2527 66.7024 62.1534C66.7573 62.0541 66.8232 62.0155 66.9001 62.0376C67.0978 62.0927 67.3559 62.1313 67.6744 62.1534C67.9929 62.1755 68.3333 62.192 68.6958 62.2031C69.0692 62.2031 69.4316 62.1976 69.7831 62.1865C70.1345 62.1755 70.442 62.1644 70.7056 62.1534C70.9473 62.1424 71.2493 62.1258 71.6117 62.1038C71.9851 62.0817 72.3695 62.0541 72.7649 62.021C73.1603 61.9879 73.5172 61.9493 73.8357 61.9051C74.1652 61.85 74.4123 61.7893 74.5771 61.7231C74.6649 61.69 74.7473 61.69 74.8242 61.7231L75.8291 62.0872C75.8731 62.1093 75.906 62.1479 75.928 62.2031C75.9609 62.2472 75.9554 62.3079 75.9115 62.3851C75.8785 62.4624 75.8236 62.6279 75.7468 62.8817C75.6809 63.1244 75.6204 63.3672 75.5655 63.61C75.5106 63.8527 75.4777 64.0182 75.4667 64.1065C75.4228 64.3713 75.3624 64.6968 75.2855 65.083C75.2196 65.4693 75.1427 65.872 75.0548 66.2913C74.978 66.6996 74.9011 67.0748 74.8242 67.4168C74.7583 67.7589 74.7034 68.0182 74.6595 68.1947C74.4727 68.8458 74.2092 69.1713 73.8687 69.1713Z" fill="#20140E"/>
<path d="M88.3489 75.494C88.1512 75.5381 87.9755 75.5105 87.8217 75.4112C87.7449 75.3561 87.6296 75.2568 87.4758 75.1133C87.333 74.9809 87.2506 74.8871 87.2287 74.8319C87.2067 74.7657 87.2287 74.683 87.2946 74.5837C87.3715 74.4954 87.4483 74.4623 87.5252 74.4844C87.7339 74.5175 88.0304 74.5561 88.4148 74.6002C88.8102 74.6444 89.2111 74.6664 89.6174 74.6664H90.2764L90.1446 73.3423C90.1007 72.9561 90.0238 72.6361 89.914 72.3823C89.8042 72.1175 89.6284 71.9244 89.3868 71.803C89.288 71.7368 89.2495 71.6595 89.2715 71.5713C89.2935 71.4499 89.3484 71.3616 89.4362 71.3064C89.5241 71.2513 89.6174 71.2347 89.7163 71.2568C89.8481 71.2899 90.0128 71.3451 90.2105 71.4223C90.4192 71.4885 90.6059 71.5768 90.7706 71.6871C90.9354 71.7975 91.0178 71.9023 91.0178 72.0016C90.9958 72.1892 90.9793 72.4816 90.9683 72.8788C90.9683 73.2761 90.9738 73.8664 90.9848 74.6499C91.4461 74.6388 91.9129 74.6223 92.3851 74.6002C92.8574 74.5892 93.2857 74.5726 93.6701 74.5506L93.8184 73.1768C93.8623 72.7795 93.8678 72.443 93.8349 72.1671C93.8019 71.8913 93.6262 71.6926 93.3077 71.5713C93.2638 71.5492 93.2253 71.5161 93.1924 71.472C93.1594 71.4278 93.1539 71.3727 93.1759 71.3064C93.2198 71.163 93.2802 71.0747 93.3571 71.0416C93.445 70.9975 93.5383 70.9809 93.6372 70.992C93.8349 71.014 94.0325 71.0637 94.2302 71.1409C94.4389 71.2071 94.6146 71.2789 94.7574 71.3561C94.8013 71.3782 94.8453 71.4168 94.8892 71.472C94.9441 71.5161 94.9606 71.5713 94.9386 71.6375C94.8837 71.8692 94.8288 72.1561 94.7739 72.4982C94.719 72.8292 94.6641 73.1713 94.6091 73.5244C94.5652 73.8775 94.5213 74.203 94.4774 74.5009C94.9057 74.4788 95.2956 74.4402 95.647 74.385C96.0095 74.3409 96.328 74.2747 96.6025 74.1864C96.7234 74.1423 96.8112 74.1368 96.8661 74.1699C96.932 74.203 96.9924 74.2581 97.0473 74.3354C97.1022 74.4126 97.1517 74.5064 97.1956 74.6168C97.2505 74.7381 97.278 74.8375 97.278 74.9147C97.278 74.9809 97.2395 75.0361 97.1627 75.0802C97.0968 75.1354 97.0473 75.163 97.0144 75.163C96.6739 75.1409 96.3829 75.1299 96.1413 75.1299C95.8996 75.1299 95.6086 75.1299 95.2681 75.1299C95.1693 75.1299 95.0594 75.1299 94.9386 75.1299C94.8288 75.1299 94.708 75.1299 94.5762 75.1299C94.0051 75.1299 93.445 75.1409 92.8958 75.163C92.3577 75.185 91.7975 75.2071 91.2155 75.2292C90.7871 75.2402 90.4357 75.2512 90.1611 75.2623C89.8865 75.2843 89.6559 75.3064 89.4692 75.3285C89.2934 75.3506 89.1177 75.3726 88.942 75.3947C88.7773 75.4278 88.5796 75.4609 88.3489 75.494ZM84.5928 68.7906C84.483 68.8458 84.3677 68.8568 84.2468 68.8237C84.137 68.7906 84.0601 68.7354 84.0162 68.6582C83.9832 68.5699 84.0272 68.4872 84.148 68.4099C84.5544 68.1561 84.9772 67.8196 85.4165 67.4003C85.8668 66.981 86.3006 66.523 86.718 66.0265C87.1353 65.5299 87.5087 65.0224 87.8382 64.5037C88.1787 63.9741 88.4423 63.472 88.629 62.9975C88.7388 62.7217 88.8102 62.4569 88.8432 62.2031C88.8871 61.9382 88.7827 61.7341 88.5301 61.5907C88.3764 61.5024 88.3379 61.392 88.4148 61.2596C88.5466 61.0169 88.7443 60.9507 89.0079 61.061C89.1617 61.1162 89.3374 61.2045 89.5351 61.3258C89.7328 61.4472 89.8755 61.5465 89.9634 61.6238C90.0513 61.69 90.1227 61.7672 90.1776 61.8555C90.2325 61.9438 90.249 62.01 90.227 62.0541C90.1062 62.2527 89.9909 62.4734 89.881 62.7162C89.7712 62.9479 89.6559 63.1796 89.5351 63.4113C89.4692 63.5658 89.3923 63.7203 89.3044 63.8748C89.2166 64.0293 89.1232 64.1837 89.0244 64.3382C89.7053 64.912 90.3094 65.3699 90.8365 65.712C91.3637 66.0541 91.814 66.3134 92.1874 66.4899C92.3412 66.6003 92.462 66.7879 92.5499 67.0527C92.6487 67.3065 92.6817 67.5437 92.6487 67.7644C92.6377 67.8527 92.5828 67.9299 92.484 67.9961C92.3961 68.0513 92.3082 68.0899 92.2204 68.112C92.1325 68.123 92.0831 68.1175 92.0721 68.0954C91.8854 67.8416 91.6438 67.5658 91.3472 67.2679C91.0617 66.9589 90.7542 66.6499 90.4247 66.341C90.1062 66.032 89.7932 65.7451 89.4856 65.4803C89.1891 65.2155 88.9365 64.9948 88.7278 64.8182C88.3654 65.3258 87.9535 65.8389 87.4923 66.3575C87.042 66.8651 86.5697 67.3341 86.0755 67.7644C85.5813 68.1837 85.087 68.5258 84.5928 68.7906ZM95.2846 68.774C95.1858 68.774 95.1253 68.7189 95.1034 68.6085C95.0814 68.4982 95.0594 68.3327 95.0375 68.112C95.0265 67.8913 95.021 67.6651 95.021 67.4334C95.021 67.2017 95.021 67.0141 95.021 66.8706V62.3189C95.021 61.9879 95.0045 61.7286 94.9716 61.541C94.9496 61.3534 94.8782 61.1934 94.7574 61.061C94.6476 60.9286 94.4609 60.7852 94.1973 60.6307C94.0875 60.5534 94.06 60.4541 94.1149 60.3327C94.2138 60.1672 94.3456 60.0845 94.5103 60.0845C94.675 60.0845 94.8947 60.1452 95.1693 60.2665C95.4438 60.3879 95.669 60.5038 95.8447 60.6141C95.8996 60.6472 95.9491 60.6914 95.993 60.7465C96.0369 60.8017 96.0534 60.8624 96.0424 60.9286C96.0095 61.1162 95.9875 61.3038 95.9765 61.4914C95.9655 61.6789 95.96 61.8886 95.96 62.1203V65.0168C96.5201 65.0168 96.9869 64.9782 97.3603 64.901C97.7337 64.8127 98.0138 64.741 98.2005 64.6858C98.3213 64.6417 98.4091 64.6362 98.4641 64.6693C98.519 64.7024 98.5684 64.7575 98.6123 64.8348C98.6562 64.901 98.7057 65.0113 98.7606 65.1658C98.8155 65.3092 98.843 65.4141 98.843 65.4803C98.843 65.5465 98.8045 65.6072 98.7277 65.6623C98.6618 65.7175 98.6123 65.7451 98.5794 65.7451C98.1401 65.701 97.7063 65.6734 97.278 65.6623C96.8606 65.6403 96.4213 65.6292 95.96 65.6292V67.1685C95.96 67.3341 95.949 67.5327 95.9271 67.7644C95.9161 67.9851 95.8831 68.2058 95.8282 68.4265C95.7843 68.6472 95.7184 68.8347 95.6305 68.9892C95.5427 69.1327 95.4274 69.2044 95.2846 69.2044Z" fill="#20140E"/>
<path d="M102.601 67.6651C101.986 67.6761 101.426 67.5603 100.921 67.3175C100.416 67.0748 100.009 66.7272 99.7016 66.2748C99.4051 65.8223 99.2568 65.2982 99.2568 64.7024C99.2568 64.1286 99.4051 63.6155 99.7016 63.1631C100.009 62.6996 100.416 62.33 100.921 62.0541C101.437 61.7672 102.003 61.6182 102.618 61.6072C103.233 61.5851 103.793 61.69 104.298 61.9217C104.803 62.1534 105.21 62.4955 105.517 62.9479C105.825 63.3893 105.978 63.9299 105.978 64.5699C105.978 65.1548 105.825 65.6789 105.517 66.1423C105.21 66.5947 104.798 66.9589 104.281 67.2348C103.776 67.4996 103.216 67.643 102.601 67.6651ZM102.618 66.9203C103.288 66.8982 103.848 66.6775 104.298 66.2582C104.759 65.8389 104.99 65.2761 104.99 64.5699C104.99 63.7975 104.754 63.2293 104.281 62.8651C103.82 62.501 103.26 62.33 102.601 62.352C101.92 62.3962 101.349 62.6224 100.888 63.0307C100.437 63.4389 100.212 63.9906 100.212 64.6858C100.212 65.4141 100.443 65.9768 100.904 66.3741C101.377 66.7603 101.948 66.9423 102.618 66.9203ZM109.784 68.774C109.685 68.774 109.625 68.7189 109.603 68.6085C109.581 68.4982 109.559 68.3327 109.537 68.112C109.526 67.8913 109.52 67.6651 109.52 67.4334C109.52 67.2017 109.52 67.0141 109.52 66.8706V64.7024L109.29 64.7189C108.927 64.741 108.631 64.7686 108.4 64.8017C108.18 64.8237 107.983 64.8568 107.807 64.901C107.642 64.9341 107.45 64.9727 107.23 65.0168C107.11 65.0389 107.011 65.0499 106.934 65.0499C106.868 65.0389 106.791 65.0058 106.703 64.9506C106.626 64.8955 106.511 64.8072 106.357 64.6858C106.203 64.5534 106.116 64.4596 106.094 64.4044C106.072 64.3493 106.088 64.2831 106.143 64.2058C106.209 64.1175 106.28 64.0844 106.357 64.1065C106.544 64.1396 106.862 64.1672 107.313 64.1893C107.774 64.2113 108.367 64.1948 109.092 64.1396L109.52 64.1065V62.3189C109.52 61.9879 109.504 61.7286 109.471 61.541C109.449 61.3534 109.378 61.1934 109.257 61.061C109.147 60.9286 108.96 60.7852 108.697 60.6307C108.587 60.5534 108.559 60.4541 108.614 60.3327C108.713 60.1672 108.845 60.0845 109.01 60.0845C109.174 60.0845 109.394 60.1452 109.669 60.2665C109.943 60.3879 110.168 60.5038 110.344 60.6141C110.399 60.6472 110.448 60.6914 110.492 60.7465C110.536 60.8017 110.553 60.8624 110.542 60.9286C110.509 61.1162 110.487 61.3038 110.476 61.4914C110.465 61.6789 110.459 61.8886 110.459 62.1203V66.7548C110.459 66.9754 110.443 67.2458 110.41 67.5658C110.377 67.8858 110.311 68.1672 110.212 68.4099C110.113 68.6527 109.971 68.774 109.784 68.774ZM105.715 75.825C105.583 75.9023 105.446 75.9354 105.303 75.9243C105.171 75.9133 105.078 75.8747 105.023 75.8085C104.979 75.7423 105.017 75.6705 105.138 75.5933C105.599 75.2623 106.05 74.843 106.489 74.3354C106.939 73.8278 107.335 73.3037 107.675 72.763C108.027 72.2223 108.279 71.7478 108.433 71.3395C108.587 70.9202 108.653 70.6058 108.631 70.3961C108.609 70.1865 108.482 70.0044 108.252 69.8499C108.109 69.7616 108.065 69.6678 108.12 69.5685C108.197 69.403 108.29 69.3092 108.4 69.2872C108.51 69.2541 108.62 69.2541 108.73 69.2872C108.894 69.3423 109.075 69.4306 109.273 69.552C109.482 69.6733 109.658 69.8002 109.8 69.9327C109.943 70.054 109.998 70.1589 109.965 70.2471C109.866 70.4347 109.767 70.6278 109.669 70.8264C109.581 71.014 109.476 71.2347 109.356 71.4885L109.108 71.9851C109.68 72.4816 110.157 72.8623 110.542 73.1271C110.937 73.3919 111.321 73.6182 111.695 73.8057C111.838 73.9051 111.953 74.0816 112.041 74.3354C112.129 74.6002 112.145 74.843 112.09 75.0637C112.057 75.1961 111.953 75.2899 111.777 75.345C111.613 75.4002 111.519 75.4057 111.497 75.3616C111.157 74.8209 110.728 74.2968 110.212 73.7892C109.707 73.2706 109.246 72.8347 108.828 72.4816C108.411 73.1768 107.933 73.8168 107.395 74.4016C106.857 74.9864 106.297 75.4609 105.715 75.825ZM100.838 75.2954C100.707 75.3726 100.575 75.4057 100.443 75.3947C100.322 75.3947 100.234 75.3616 100.179 75.2954C100.135 75.2292 100.168 75.1574 100.278 75.0802C100.805 74.705 101.272 74.2857 101.679 73.8223C102.085 73.3588 102.425 72.9175 102.7 72.4982C102.985 72.0788 103.183 71.7589 103.293 71.5382C103.48 71.1851 103.584 70.8926 103.606 70.6609C103.628 70.4292 103.518 70.2361 103.277 70.0816C103.134 70.0044 103.095 69.9106 103.161 69.8002C103.249 69.6458 103.342 69.563 103.441 69.552C103.54 69.5299 103.65 69.5409 103.771 69.5851C103.925 69.6403 104.089 69.723 104.265 69.8334C104.441 69.9437 104.589 70.054 104.71 70.1644C104.831 70.2747 104.869 70.374 104.825 70.4623C104.726 70.6168 104.616 70.8154 104.496 71.0582C104.375 71.2899 104.243 71.5161 104.1 71.7368C104.331 71.9354 104.578 72.1175 104.842 72.283C105.105 72.4485 105.435 72.6306 105.83 72.8292C105.962 72.8954 106.077 73.0554 106.176 73.3092C106.275 73.5519 106.302 73.7726 106.258 73.9713C106.214 74.0816 106.11 74.1699 105.945 74.2361C105.792 74.2913 105.704 74.2802 105.682 74.203C105.418 73.7616 105.111 73.3644 104.759 73.0113C104.408 72.6582 104.106 72.3602 103.853 72.1175C103.392 72.8237 102.903 73.4471 102.387 73.9878C101.871 74.5285 101.355 74.9643 100.838 75.2954Z" fill="#20140E"/>
<path d="M115.499 68.9561C115.268 68.9561 115.076 68.8458 114.922 68.6251C114.779 68.4044 114.708 68.1341 114.708 67.8141V64.09C114.708 63.7258 114.658 63.4389 114.559 63.2293C114.472 63.0196 114.268 62.8375 113.95 62.6831C113.829 62.6279 113.796 62.5341 113.851 62.4017C113.961 62.192 114.109 62.0982 114.296 62.1203C114.417 62.1424 114.57 62.181 114.757 62.2362C114.955 62.2803 115.131 62.33 115.284 62.3851C115.57 62.3962 115.932 62.3962 116.372 62.3851C116.811 62.3631 117.267 62.3355 117.739 62.3024C118.211 62.2693 118.645 62.2251 119.04 62.17C119.447 62.1148 119.754 62.0541 119.963 61.9879C120.095 61.9438 120.188 61.9327 120.243 61.9548C120.309 61.9769 120.369 62.0265 120.424 62.1038C120.468 62.1589 120.523 62.2472 120.589 62.3686C120.655 62.49 120.688 62.5838 120.688 62.65C120.688 62.7162 120.655 62.7824 120.589 62.8486C120.534 62.9148 120.485 62.9479 120.441 62.9479C120.067 62.9148 119.606 62.9038 119.057 62.9148C118.508 62.9148 117.931 62.9313 117.327 62.9644C116.734 62.9865 116.174 63.0196 115.647 63.0638V67.4499C115.647 67.5934 115.658 67.7368 115.68 67.8803C115.713 68.0127 115.817 68.0789 115.993 68.0789C116.498 68.0899 117.02 68.0623 117.558 67.9961C118.107 67.9299 118.629 67.8472 119.123 67.7478C119.628 67.6375 120.067 67.5327 120.441 67.4334C120.825 67.323 121.105 67.2348 121.281 67.1685C121.435 67.1023 121.539 67.1079 121.594 67.1851C121.649 67.2623 121.66 67.3561 121.627 67.4665C121.594 67.5768 121.512 67.6706 121.38 67.7478C121.27 67.8141 121.056 67.8968 120.737 67.9961C120.43 68.0954 120.056 68.2058 119.617 68.3272C119.178 68.4375 118.711 68.5423 118.217 68.6416C117.734 68.7409 117.25 68.8237 116.767 68.8899C116.295 68.9451 115.872 68.9671 115.499 68.9561ZM124.279 71.6209C124.18 71.6209 124.12 71.5658 124.098 71.4554C124.076 71.3451 124.054 71.1685 124.032 70.9258C124.021 70.683 124.016 70.4347 124.016 70.1809C124.016 69.9271 124.016 69.7285 124.016 69.5851V65.1327L123.241 65.1824C122.857 65.2044 122.55 65.232 122.319 65.2651C122.088 65.2872 121.891 65.3148 121.726 65.3479C121.561 65.381 121.38 65.4196 121.182 65.4637C121.061 65.4858 120.962 65.4968 120.886 65.4968C120.82 65.4858 120.743 65.4527 120.655 65.3975C120.567 65.3424 120.441 65.2541 120.276 65.1327C120.122 65.0003 120.034 64.9065 120.012 64.8513C119.99 64.7851 120.012 64.7134 120.078 64.6361C120.144 64.5479 120.21 64.5093 120.276 64.5203C120.518 64.5644 120.853 64.5975 121.281 64.6196C121.72 64.6306 122.247 64.6196 122.863 64.5865L124.016 64.5037V62.3189C124.016 61.9879 123.999 61.7286 123.966 61.541C123.944 61.3534 123.878 61.1934 123.769 61.061C123.659 60.9286 123.472 60.7852 123.208 60.6307C123.088 60.5424 123.06 60.4431 123.126 60.3327C123.225 60.1672 123.351 60.0845 123.505 60.0845C123.67 60.0845 123.889 60.1452 124.164 60.2665C124.45 60.3879 124.68 60.5038 124.856 60.6141C124.988 60.6914 125.048 60.7962 125.037 60.9286C125.004 61.1162 124.982 61.3038 124.971 61.4914C124.96 61.6789 124.955 61.8886 124.955 62.1203V69.4692C124.955 69.6237 124.944 69.8223 124.922 70.0651C124.911 70.2968 124.883 70.534 124.839 70.7768C124.795 71.0195 124.73 71.2237 124.642 71.3892C124.554 71.5437 124.433 71.6209 124.279 71.6209ZM119.436 75.1795C118.887 75.1795 118.48 75.0361 118.217 74.7492C117.953 74.4623 117.821 74.065 117.821 73.5575V72.4651C117.821 72.112 117.788 71.8416 117.723 71.654C117.657 71.4664 117.481 71.312 117.195 71.1906C117.129 71.1685 117.086 71.1244 117.064 71.0582C117.053 70.992 117.053 70.9313 117.064 70.8761C117.14 70.6554 117.283 70.5616 117.492 70.5947C117.668 70.6168 117.865 70.6775 118.085 70.7768C118.305 70.8651 118.497 70.9589 118.662 71.0582C118.804 71.1464 118.865 71.2347 118.843 71.323C118.832 71.4002 118.815 71.5382 118.793 71.7368C118.771 71.9354 118.76 72.1285 118.76 72.3161V73.4747C118.76 73.8609 118.826 74.1257 118.958 74.2692C119.101 74.4016 119.288 74.4788 119.518 74.5009C119.65 74.5119 119.859 74.5175 120.144 74.5175C120.441 74.5175 120.765 74.5119 121.116 74.5009C121.468 74.4899 121.808 74.4788 122.138 74.4678C122.478 74.4568 122.753 74.4457 122.961 74.4347C123.532 74.4016 124.016 74.3464 124.411 74.2692C124.817 74.1919 125.114 74.1257 125.301 74.0706C125.542 73.9933 125.713 74.0264 125.811 74.1699C125.866 74.2581 125.927 74.363 125.993 74.4844C126.059 74.6057 126.097 74.705 126.108 74.7823C126.119 74.8595 126.08 74.9312 125.993 74.9975C125.916 75.0747 125.855 75.1133 125.811 75.1133C125.427 75.0912 125.098 75.0747 124.823 75.0637C124.548 75.0637 124.257 75.0637 123.95 75.0637C123.642 75.0747 123.247 75.0912 122.764 75.1133C122.204 75.1354 121.643 75.1519 121.083 75.163C120.523 75.174 119.974 75.1795 119.436 75.1795Z" fill="#20140E"/>
<path d="M134.748 70.1478C134.638 70.1809 134.55 70.1478 134.484 70.0485C134.418 69.9382 134.375 69.8002 134.353 69.6347L134.007 64.6527C133.985 64.2886 133.919 64.0072 133.809 63.8086C133.699 63.61 133.496 63.4389 133.199 63.2955C133.09 63.2403 133.062 63.1465 133.117 63.0141C133.194 62.8155 133.342 62.7272 133.562 62.7493C133.65 62.7713 133.776 62.8044 133.941 62.8486C134.105 62.8817 134.265 62.9258 134.418 62.981C134.66 62.992 134.995 62.9975 135.423 62.9975C135.863 62.9975 136.318 62.992 136.791 62.981C137.263 62.9589 137.68 62.9369 138.043 62.9148C138.394 62.8927 138.669 62.8596 138.867 62.8155C139.075 62.7603 139.24 62.7051 139.361 62.65C139.449 62.6169 139.536 62.6169 139.624 62.65C139.745 62.6941 139.877 62.7438 140.02 62.7989C140.162 62.8431 140.311 62.8872 140.465 62.9313C140.508 62.9534 140.547 62.9865 140.58 63.0307C140.624 63.0748 140.629 63.1355 140.596 63.2127C140.541 63.3341 140.481 63.5493 140.415 63.8582C140.36 64.1562 140.305 64.5203 140.25 64.9506L139.806 68.443C139.893 68.5092 140.009 68.6085 140.152 68.741C140.294 68.8623 140.366 68.9616 140.366 69.0389C140.366 69.1272 140.327 69.2099 140.25 69.2872C140.173 69.3534 140.119 69.3865 140.086 69.3865C139.8 69.3865 139.449 69.3865 139.031 69.3865C138.614 69.3865 138.169 69.392 137.697 69.403C137.225 69.403 136.769 69.4085 136.329 69.4196C135.89 69.4306 135.506 69.4416 135.176 69.4527C135.165 69.6513 135.116 69.8113 135.028 69.9327C134.94 70.043 134.847 70.1147 134.748 70.1478ZM135.143 68.774C135.264 68.774 135.489 68.774 135.819 68.774C136.159 68.763 136.538 68.752 136.955 68.741C137.384 68.7189 137.796 68.6968 138.191 68.6747C138.586 68.6527 138.899 68.6251 139.13 68.592C139.174 67.5547 139.218 66.6113 139.262 65.7617C139.306 64.901 139.328 64.2224 139.328 63.7258C139.328 63.6375 139.311 63.5879 139.278 63.5769C139.256 63.5548 139.234 63.5437 139.212 63.5437C138.993 63.5437 138.702 63.5493 138.339 63.5603C137.988 63.5603 137.609 63.5658 137.203 63.5769C136.796 63.5879 136.39 63.6044 135.984 63.6265C135.588 63.6375 135.242 63.6486 134.946 63.6596L135.143 68.774ZM143.315 74.683C143.194 74.683 143.128 74.6278 143.117 74.5175C143.106 74.4292 143.089 74.2692 143.067 74.0375C143.056 73.7947 143.045 73.5354 143.034 73.2595C143.023 72.9726 143.018 72.7244 143.018 72.5147V62.3686C143.018 62.0265 143.002 61.7617 142.969 61.5741C142.947 61.3865 142.875 61.232 142.754 61.1107C142.645 60.9783 142.447 60.8403 142.161 60.6969C142.074 60.6417 142.03 60.5865 142.03 60.5314C142.03 60.4762 142.068 60.4045 142.145 60.3162C142.222 60.2169 142.304 60.1672 142.392 60.1672C142.524 60.1672 142.689 60.2003 142.886 60.2665C143.084 60.3327 143.276 60.41 143.463 60.4983C143.65 60.5755 143.787 60.6472 143.875 60.7134C144.006 60.8127 144.067 60.9231 144.056 61.0445C144.023 61.2762 143.995 61.4914 143.974 61.69C143.963 61.8886 143.957 62.1203 143.957 62.3851V66.9037C144.539 66.9037 145.05 66.8596 145.489 66.7713C145.939 66.672 146.252 66.5948 146.428 66.5396C146.549 66.4955 146.637 66.4899 146.692 66.523C146.747 66.5561 146.796 66.6058 146.84 66.672C146.895 66.7492 146.95 66.8651 147.005 67.0196C147.071 67.1741 147.104 67.2899 147.104 67.3672C147.104 67.4334 147.065 67.4941 146.988 67.5492C146.922 67.6044 146.873 67.632 146.84 67.632C146.434 67.5768 146.011 67.5492 145.572 67.5492C145.143 67.5382 144.709 67.5327 144.27 67.5327C144.215 67.5327 144.16 67.5327 144.105 67.5327C144.061 67.5327 144.012 67.5327 143.957 67.5327V72.4816C143.957 72.6582 143.946 72.8733 143.924 73.1271C143.913 73.3699 143.886 73.6126 143.842 73.8554C143.798 74.0871 143.732 74.2802 143.644 74.4347C143.567 74.6002 143.457 74.683 143.315 74.683Z" fill="#20140E"/>
<path d="M155.29 66.2417C154.631 66.2527 154.022 66.1423 153.461 65.9106C152.912 65.6789 152.467 65.3479 152.127 64.9175C151.798 64.4872 151.633 63.9796 151.633 63.3948C151.633 62.832 151.803 62.3355 152.143 61.9051C152.484 61.4638 152.929 61.1162 153.478 60.8624C154.038 60.5976 154.648 60.4596 155.307 60.4486C155.976 60.4265 156.586 60.5258 157.135 60.7465C157.684 60.9672 158.124 61.2872 158.453 61.7065C158.794 62.1258 158.964 62.6444 158.964 63.2624C158.964 63.8141 158.794 64.3162 158.453 64.7686C158.124 65.2099 157.679 65.563 157.119 65.8279C156.559 66.0817 155.949 66.2196 155.29 66.2417ZM152.588 75.7754C152.478 75.8085 152.391 75.7809 152.325 75.6926C152.27 75.6043 152.231 75.4774 152.209 75.3119L152.045 72.4651C152.023 72.1009 151.962 71.8361 151.863 71.6706C151.765 71.494 151.572 71.3395 151.287 71.2071C151.188 71.152 151.161 71.0527 151.204 70.9092C151.248 70.7989 151.309 70.7327 151.386 70.7106C151.463 70.6775 151.545 70.6665 151.633 70.6775C151.754 70.6996 151.913 70.7271 152.111 70.7602C152.308 70.7934 152.484 70.832 152.638 70.8761C152.978 70.8761 153.401 70.8761 153.906 70.8761C154.422 70.8761 154.955 70.8706 155.504 70.8596C156.053 70.8375 156.553 70.8099 157.003 70.7768C157.322 70.7547 157.596 70.7271 157.827 70.694C158.058 70.6609 158.217 70.6223 158.305 70.5782C158.36 70.5451 158.437 70.5396 158.535 70.5616C158.689 70.5947 158.827 70.6278 158.947 70.6609C159.068 70.683 159.205 70.7216 159.359 70.7768C159.469 70.8099 159.496 70.8927 159.442 71.0251C159.42 71.1133 159.387 71.2623 159.343 71.472C159.31 71.6706 159.277 71.8802 159.244 72.1009C159.211 72.3216 159.183 72.4926 159.162 72.614L158.931 74.3023C158.997 74.3575 159.085 74.4347 159.194 74.534C159.315 74.6333 159.376 74.7161 159.376 74.7823C159.376 74.8595 159.337 74.9368 159.26 75.014C159.183 75.1023 159.129 75.1464 159.096 75.1464C158.711 75.1243 158.244 75.1078 157.695 75.0968C157.146 75.0968 156.575 75.0968 155.982 75.0968C155.4 75.0968 154.845 75.1023 154.318 75.1133C153.791 75.1243 153.363 75.1354 153.033 75.1464C153.011 75.323 152.951 75.4609 152.852 75.5602C152.764 75.6595 152.676 75.7312 152.588 75.7754ZM155.307 65.5299C156.064 65.4968 156.685 65.2872 157.168 64.901C157.651 64.5037 157.904 63.9575 157.926 63.2624C157.948 62.7658 157.844 62.3631 157.613 62.0541C157.382 61.7451 157.064 61.5189 156.657 61.3755C156.251 61.221 155.795 61.1438 155.29 61.1438C154.785 61.1438 154.329 61.2431 153.923 61.4417C153.527 61.6293 153.209 61.8886 152.967 62.2196C152.737 62.5507 152.621 62.9369 152.621 63.3782C152.621 64.0955 152.879 64.6417 153.396 65.0168C153.912 65.381 154.549 65.552 155.307 65.5299ZM153.033 74.5175C153.055 74.5175 153.121 74.5175 153.231 74.5175C153.439 74.5175 153.758 74.5175 154.186 74.5175C154.615 74.5175 155.081 74.5119 155.587 74.5009C156.103 74.5009 156.592 74.4954 157.053 74.4844C157.514 74.4733 157.887 74.4512 158.173 74.4181C158.184 74.2637 158.195 74.0485 158.206 73.7726C158.228 73.4857 158.244 73.1878 158.255 72.8788C158.266 72.5588 158.277 72.272 158.288 72.0182C158.299 71.7644 158.305 71.5989 158.305 71.5216C158.305 71.4444 158.288 71.4002 158.255 71.3892C158.222 71.3782 158.19 71.3727 158.157 71.3727C158.146 71.3727 158.14 71.3727 158.14 71.3727C157.909 71.3837 157.574 71.3947 157.135 71.4058C156.707 71.4168 156.229 71.4278 155.702 71.4389C155.186 71.4499 154.68 71.4609 154.186 71.472C153.692 71.483 153.275 71.494 152.934 71.5051L153.033 74.5175ZM149.162 69.1878C149.052 69.1878 148.931 69.1382 148.799 69.0389C148.744 68.9947 148.662 68.9285 148.552 68.8403C148.453 68.7409 148.36 68.6472 148.272 68.5589C148.184 68.4596 148.129 68.3934 148.107 68.3603C148.085 68.3051 148.096 68.2334 148.14 68.1451C148.195 68.0568 148.261 68.0127 148.338 68.0127C148.656 68.0678 149.035 68.1175 149.475 68.1616C149.925 68.1947 150.485 68.2113 151.155 68.2113C151.561 68.2113 152.072 68.2058 152.687 68.1947C153.313 68.1727 153.978 68.1506 154.681 68.1285C155.394 68.1065 156.086 68.0844 156.756 68.0623C157.437 68.0292 158.036 67.9961 158.552 67.963C158.837 67.941 159.161 67.9189 159.524 67.8968C159.897 67.8637 160.249 67.8251 160.578 67.781C160.908 67.7368 161.155 67.6982 161.32 67.6651C161.506 67.621 161.633 67.5879 161.699 67.5658C161.775 67.5437 161.841 67.5327 161.896 67.5327C161.973 67.5327 162.061 67.5989 162.16 67.7313C162.215 67.8196 162.27 67.9244 162.325 68.0458C162.39 68.1561 162.423 68.2499 162.423 68.3272C162.423 68.4265 162.379 68.5037 162.292 68.5589C162.215 68.6141 162.165 68.6416 162.143 68.6416C161.957 68.6196 161.737 68.6085 161.484 68.6085C161.232 68.5975 160.985 68.592 160.743 68.592C160.512 68.5809 160.32 68.5754 160.166 68.5754C159.903 68.5754 159.54 68.5809 159.079 68.592C158.629 68.603 158.124 68.6196 157.563 68.6416C157.003 68.6527 156.432 68.6692 155.85 68.6913C155.268 68.7134 154.708 68.7354 154.17 68.7575C153.643 68.7796 153.181 68.8016 152.786 68.8237C152.402 68.8347 152.122 68.8458 151.946 68.8568C151.616 68.8679 151.281 68.8954 150.941 68.9396C150.6 68.9727 150.293 69.0113 150.018 69.0554C149.755 69.0885 149.573 69.1161 149.475 69.1382C149.431 69.1492 149.381 69.1603 149.326 69.1713C149.271 69.1823 149.217 69.1878 149.162 69.1878Z" fill="#20140E"/>
<path d="M168.535 67.6154C167.909 67.6265 167.332 67.5161 166.805 67.2844C166.278 67.0416 165.855 66.6996 165.536 66.2582C165.218 65.8058 165.059 65.2817 165.059 64.6858C165.059 64.112 165.218 63.5989 165.536 63.1465C165.855 62.6941 166.278 62.33 166.805 62.0541C167.332 61.7782 167.914 61.6348 168.551 61.6238C169.188 61.6017 169.77 61.7065 170.297 61.9382C170.825 62.17 171.247 62.5065 171.566 62.9479C171.884 63.3893 172.044 63.9244 172.044 64.5534C172.044 65.1272 171.879 65.6458 171.55 66.1092C171.231 66.5617 170.808 66.9203 170.281 67.1851C169.754 67.4499 169.172 67.5934 168.535 67.6154ZM168.551 66.9037C169.254 66.8817 169.842 66.661 170.314 66.2417C170.797 65.8223 171.039 65.2596 171.039 64.5534C171.039 63.781 170.797 63.2127 170.314 62.8486C169.842 62.4844 169.249 62.3134 168.535 62.3355C167.821 62.3796 167.217 62.6058 166.723 63.0141C166.239 63.4224 165.998 63.9741 165.998 64.6693C165.998 65.3975 166.245 65.9603 166.739 66.3575C167.233 66.7437 167.837 66.9258 168.551 66.9037ZM174.943 74.683C174.822 74.683 174.757 74.6278 174.746 74.5175C174.735 74.4292 174.718 74.2692 174.696 74.0375C174.685 73.7947 174.674 73.5354 174.663 73.2595C174.652 72.9726 174.647 72.7244 174.647 72.5147V62.3686C174.647 62.0265 174.63 61.7617 174.597 61.5741C174.575 61.3865 174.504 61.232 174.383 61.1107C174.273 60.9783 174.076 60.8403 173.79 60.6969C173.702 60.6417 173.658 60.5865 173.658 60.5314C173.658 60.4762 173.697 60.4045 173.774 60.3162C173.85 60.2169 173.933 60.1672 174.021 60.1672C174.152 60.1672 174.317 60.2003 174.515 60.2665C174.713 60.3327 174.905 60.41 175.091 60.4983C175.278 60.5755 175.415 60.6472 175.503 60.7134C175.635 60.8127 175.696 60.9231 175.685 61.0445C175.652 61.2762 175.624 61.4914 175.602 61.69C175.591 61.8886 175.586 62.1203 175.586 62.3851V72.4816C175.586 72.6582 175.575 72.8733 175.553 73.1271C175.542 73.3699 175.514 73.6126 175.47 73.8554C175.426 74.0871 175.361 74.2802 175.273 74.4347C175.196 74.6002 175.086 74.683 174.943 74.683ZM164.96 71.3892C164.872 71.3892 164.79 71.3727 164.713 71.3395C164.647 71.3064 164.564 71.2568 164.466 71.1906C164.334 71.1023 164.186 70.9975 164.021 70.8761C163.856 70.7547 163.763 70.6554 163.741 70.5782C163.73 70.523 163.746 70.4513 163.79 70.363C163.845 70.2747 163.911 70.2306 163.988 70.2306C164.273 70.2747 164.553 70.3078 164.828 70.3299C165.103 70.3409 165.377 70.3465 165.652 70.3465C166.036 70.3465 166.503 70.3299 167.052 70.2968C167.612 70.2527 168.211 70.192 168.848 70.1147C169.485 70.0375 170.116 69.9547 170.742 69.8665C171.379 69.7671 171.972 69.6678 172.521 69.5685C173.071 69.4582 173.532 69.3478 173.905 69.2375C173.971 69.2154 174.037 69.2154 174.103 69.2375C174.169 69.2485 174.202 69.2982 174.202 69.3865C174.202 69.4527 174.169 69.5299 174.103 69.6182C174.037 69.6954 173.949 69.7616 173.839 69.8168C173.708 69.872 173.444 69.9492 173.049 70.0485C172.664 70.1368 172.198 70.2361 171.648 70.3465C171.099 70.4568 170.512 70.5616 169.886 70.6609C169.26 70.7602 168.645 70.843 168.041 70.9092C167.535 70.9644 167.047 71.0196 166.574 71.0747C166.113 71.1299 165.734 71.2016 165.438 71.2899C165.229 71.3561 165.07 71.3892 164.96 71.3892Z" fill="#20140E"/>
<path d="M184.012 71.8692C183.869 71.9354 183.731 71.952 183.6 71.9189C183.468 71.8747 183.386 71.8085 183.353 71.7202C183.32 71.6209 183.385 71.5271 183.55 71.4389C184.22 71.0416 184.89 70.5451 185.56 69.9492C186.241 69.3534 186.878 68.6968 187.471 67.9796C188.064 67.2623 188.569 66.5065 188.987 65.712C189.415 64.9175 189.712 64.1231 189.876 63.3286C189.898 63.2182 189.876 63.1575 189.81 63.1465C189.745 63.1244 189.701 63.1134 189.679 63.1134C189.503 63.1134 189.25 63.1244 188.921 63.1465C188.591 63.1575 188.256 63.1741 187.916 63.1962C187.586 63.2072 187.334 63.2238 187.158 63.2458C186.675 63.29 186.29 63.3231 186.005 63.3451C185.719 63.3672 185.412 63.4113 185.082 63.4775C184.907 63.5106 184.78 63.5162 184.703 63.4941C184.638 63.472 184.561 63.4169 184.473 63.3286C184.242 63.0969 184.083 62.9038 183.995 62.7493C183.962 62.6941 183.973 62.6224 184.028 62.5341C184.083 62.4458 184.143 62.4127 184.209 62.4348C184.528 62.501 184.951 62.5507 185.478 62.5838C186.005 62.6058 186.527 62.6003 187.043 62.5672C187.361 62.5451 187.702 62.5231 188.064 62.501C188.427 62.4679 188.767 62.4238 189.086 62.3686C189.415 62.3134 189.673 62.2527 189.86 62.1865C189.86 62.1865 189.865 62.1865 189.876 62.1865C189.92 62.1755 189.953 62.17 189.975 62.17C190.008 62.17 190.052 62.1755 190.107 62.1865L191.145 62.5175C191.189 62.5396 191.222 62.5782 191.244 62.6334C191.266 62.6886 191.26 62.7493 191.227 62.8155L190.898 63.7424C190.623 64.5368 190.239 65.3368 189.745 66.1423C189.25 66.9479 188.685 67.7203 188.048 68.4596C187.422 69.1989 186.763 69.8665 186.071 70.4623C185.379 71.0471 184.692 71.5161 184.012 71.8692ZM194.044 74.683C193.924 74.683 193.858 74.6278 193.847 74.5175C193.836 74.4292 193.819 74.2692 193.797 74.0375C193.786 73.7947 193.775 73.5354 193.764 73.2595C193.753 72.9726 193.748 72.7244 193.748 72.5147V62.3686C193.748 62.0265 193.731 61.7617 193.698 61.5741C193.676 61.3865 193.605 61.232 193.484 61.1107C193.374 60.9783 193.177 60.8403 192.891 60.6969C192.803 60.6417 192.759 60.5865 192.759 60.5314C192.759 60.4762 192.798 60.4045 192.875 60.3162C192.952 60.2169 193.034 60.1672 193.122 60.1672C193.254 60.1672 193.418 60.2003 193.616 60.2665C193.814 60.3327 194.006 60.41 194.193 60.4983C194.379 60.5755 194.517 60.6472 194.604 60.7134C194.736 60.8127 194.797 60.9231 194.786 61.0445C194.753 61.2762 194.725 61.4914 194.703 61.69C194.692 61.8886 194.687 62.1203 194.687 62.3851V72.4816C194.687 72.6582 194.676 72.8733 194.654 73.1271C194.643 73.3699 194.615 73.6126 194.572 73.8554C194.528 74.0871 194.462 74.2802 194.374 74.4347C194.297 74.6002 194.187 74.683 194.044 74.683Z" fill="#20140E"/>
<path d="M198.881 69.7175C198.706 69.7616 198.585 69.7782 198.519 69.7672C198.453 69.7451 198.365 69.7065 198.255 69.6513C198.244 69.6403 198.233 69.6347 198.222 69.6347C198.156 69.5906 198.069 69.5244 197.959 69.4361C197.849 69.3368 197.75 69.243 197.662 69.1547C197.574 69.0554 197.525 68.9892 197.514 68.9561C197.481 68.9009 197.498 68.8237 197.563 68.7244C197.64 68.6251 197.712 68.5865 197.778 68.6085C198.129 68.6747 198.546 68.7299 199.03 68.774C199.524 68.8072 200.062 68.8182 200.644 68.8072C201.215 68.8072 201.819 68.8016 202.456 68.7906C203.104 68.7796 203.769 68.763 204.45 68.741L204.384 66.4899C204.241 66.4899 204.098 66.4954 203.955 66.5065C203.824 66.5065 203.686 66.5065 203.544 66.5065C203.225 66.5175 202.907 66.5285 202.588 66.5396C202.281 66.5506 201.973 66.5451 201.665 66.523C201.435 66.512 201.248 66.4182 201.105 66.2417C200.974 66.0541 200.908 65.7782 200.908 65.4141V64.5368C200.908 64.3934 200.858 64.2831 200.759 64.2058C200.726 64.1837 200.644 64.1231 200.512 64.0237C200.381 63.9244 200.304 63.8472 200.282 63.792C200.238 63.7368 200.249 63.6431 200.315 63.5106C200.381 63.3672 200.446 63.3065 200.512 63.3286C200.699 63.3727 200.891 63.4058 201.089 63.4279C201.298 63.4389 201.539 63.45 201.814 63.461C201.968 63.461 202.22 63.461 202.572 63.461C202.934 63.45 203.351 63.4389 203.824 63.4279C204.296 63.4058 204.768 63.3893 205.24 63.3782C205.724 63.3562 206.157 63.3341 206.542 63.312C206.937 63.2789 207.234 63.2513 207.432 63.2293C207.432 63.152 207.442 63.0196 207.464 62.832C207.486 62.6334 207.508 62.4238 207.53 62.2031C207.552 61.9713 207.563 61.7782 207.563 61.6238C207.563 61.5355 207.547 61.4858 207.514 61.4748C207.492 61.4638 207.47 61.4582 207.448 61.4582C207.437 61.4582 207.432 61.4582 207.432 61.4582C207.41 61.4582 207.146 61.4693 206.641 61.4914C206.146 61.5024 205.493 61.53 204.68 61.5741C204.021 61.6182 203.384 61.6569 202.769 61.69C202.165 61.712 201.72 61.7672 201.435 61.8555C201.314 61.8996 201.215 61.9107 201.138 61.8886C201.061 61.8665 200.979 61.8279 200.891 61.7727C200.803 61.7176 200.699 61.6293 200.578 61.5079C200.457 61.3865 200.386 61.2983 200.364 61.2431C200.353 61.1879 200.381 61.1162 200.446 61.0279C200.523 60.9286 200.595 60.89 200.661 60.912C200.792 60.9562 200.996 60.9893 201.27 61.0114C201.556 61.0224 201.874 61.0334 202.226 61.0445C202.588 61.0445 202.94 61.0445 203.28 61.0445C203.631 61.0334 203.933 61.0224 204.186 61.0114C204.57 60.9893 204.977 60.9672 205.405 60.9451C205.834 60.9231 206.234 60.89 206.608 60.8458C206.992 60.8017 207.294 60.741 207.514 60.6638C207.591 60.6196 207.695 60.6141 207.827 60.6472L208.651 60.8789C208.782 60.9341 208.815 61.0169 208.749 61.1272C208.727 61.1714 208.684 61.2817 208.618 61.4582C208.563 61.6348 208.502 61.8334 208.436 62.0541C208.371 62.2748 208.305 62.4844 208.239 62.6831C208.184 62.8817 208.145 63.0306 208.123 63.13C208.222 63.1741 208.332 63.2403 208.453 63.3286C208.585 63.4169 208.651 63.4941 208.651 63.5603C208.651 63.6486 208.607 63.7424 208.519 63.8417C208.442 63.93 208.387 63.9686 208.354 63.9575C208.2 63.9465 207.926 63.941 207.53 63.941C207.135 63.941 206.674 63.9465 206.146 63.9575C205.63 63.9575 205.098 63.9686 204.548 63.9906C204.01 64.0017 203.5 64.0238 203.016 64.0569C202.544 64.0789 202.16 64.101 201.863 64.1231V65.3479C201.863 65.5686 201.891 65.723 201.946 65.8113C202 65.8996 202.138 65.9437 202.357 65.9437C202.961 65.9437 203.522 65.9437 204.038 65.9437C204.565 65.9327 205.131 65.9051 205.735 65.861C206.394 65.8168 206.937 65.7672 207.366 65.712C207.794 65.6568 208.14 65.5851 208.403 65.4968C208.546 65.4527 208.651 65.4361 208.717 65.4472C208.782 65.4472 208.848 65.4913 208.914 65.5796C208.98 65.6568 209.035 65.7396 209.079 65.8279C209.134 65.9051 209.172 65.9768 209.194 66.043C209.216 66.1203 209.178 66.203 209.079 66.2913C208.991 66.3686 208.925 66.4072 208.881 66.4072C208.563 66.3961 208.272 66.3961 208.008 66.4072C207.745 66.4072 207.47 66.4127 207.184 66.4237C206.965 66.4348 206.729 66.4458 206.476 66.4568C206.234 66.4568 205.954 66.4568 205.636 66.4568H205.356L205.273 68.7078C206.152 68.6858 207.009 68.6527 207.843 68.6085C208.557 68.5865 209.211 68.5423 209.804 68.4761C210.408 68.3989 210.836 68.3161 211.089 68.2278C211.21 68.1837 211.303 68.1782 211.369 68.2113C211.435 68.2444 211.501 68.3051 211.567 68.3934C211.621 68.4816 211.676 68.5865 211.731 68.7078C211.797 68.8182 211.83 68.9175 211.83 69.0058C211.83 69.083 211.792 69.1492 211.715 69.2044C211.638 69.2596 211.583 69.2872 211.55 69.2872C211.166 69.232 210.737 69.2044 210.265 69.2044C209.793 69.2044 209.337 69.2099 208.898 69.2209C208.755 69.2209 208.618 69.2209 208.486 69.2209C208.354 69.2209 208.228 69.2209 208.107 69.2209C207.613 69.232 207.064 69.2485 206.46 69.2706C205.866 69.2816 205.262 69.2982 204.647 69.3203C204.032 69.3423 203.439 69.3644 202.868 69.3865C202.297 69.4085 201.792 69.4306 201.352 69.4527C200.858 69.4747 200.402 69.5134 199.985 69.5685C199.579 69.6127 199.211 69.6623 198.881 69.7175ZM208.058 75.9905C207.959 76.0126 207.887 75.9961 207.843 75.9409C207.81 75.8968 207.788 75.8471 207.777 75.7919C207.755 75.6043 207.739 75.3726 207.728 75.0968C207.728 74.8319 207.728 74.5892 207.728 74.3685V71.8195C207.728 71.6871 207.69 71.6209 207.613 71.6209C207.547 71.6209 207.399 71.6264 207.168 71.6375C206.937 71.6375 206.663 71.643 206.344 71.654C206.026 71.6651 205.707 71.6816 205.389 71.7037C205.081 71.7147 204.812 71.7258 204.581 71.7368C203.89 71.7699 203.258 71.803 202.687 71.8361C202.116 71.8692 201.671 71.9189 201.352 71.9851C201.144 72.0292 200.968 72.0016 200.825 71.9023C200.737 71.8361 200.622 71.7423 200.479 71.6209C200.337 71.4995 200.254 71.4058 200.232 71.3395C200.21 71.2844 200.232 71.2071 200.298 71.1078C200.364 71.0085 200.435 70.9699 200.512 70.992C200.677 71.0361 200.974 71.0747 201.402 71.1078C201.83 71.1409 202.319 71.163 202.868 71.174C203.417 71.174 203.961 71.163 204.499 71.1409C205.268 71.1078 205.921 71.0637 206.46 71.0085C206.998 70.9533 207.371 70.8761 207.58 70.7768C207.591 70.7768 207.607 70.7713 207.629 70.7602C207.684 70.7271 207.745 70.7271 207.81 70.7602C207.964 70.7934 208.123 70.832 208.288 70.8761C208.464 70.9202 208.596 70.9533 208.684 70.9754C208.782 70.9975 208.826 71.0802 208.815 71.2237C208.804 71.2789 208.788 71.3892 208.766 71.5547C208.755 71.7092 208.744 71.8692 208.733 72.0347C208.722 72.2002 208.717 72.3382 208.717 72.4485L208.7 74.1037C208.7 74.3023 208.678 74.5395 208.634 74.8154C208.59 75.1023 208.519 75.3616 208.42 75.5933C208.332 75.825 208.211 75.9574 208.058 75.9905Z" fill="#20140E"/>
</svg>