<svg width="232" height="55" viewBox="0 0 232 55" fill="none" xmlns="http://www.w3.org/2000/svg">
<path opacity="0.35" d="M31.6527 48.796V49.1161C31.5679 46.065 29.0679 43.6327 26.0171 43.6327C22.9662 43.6327 20.4026 46.1503 20.3814 49.2654V49.3081V49.0094C20.212 41.0296 13.6653 34.5434 5.76278 34.5221H5.69922C8.77126 34.4794 11.2713 31.9617 11.2713 28.8466C11.2713 25.7315 8.79245 23.2139 5.72041 23.1712C12.5213 23.1712 18.7713 25.8809 23.4323 30.2762C28.3899 34.9275 31.5255 41.499 31.6738 48.7747L31.6527 48.796Z" fill="#FF5900"/>
<path opacity="0.45" d="M50.8258 10.4121C48.8343 11.927 46.9699 13.6125 45.2114 15.4475C44.4063 16.3009 43.6224 17.1757 42.8809 18.0505C35.7199 26.713 31.758 37.4238 31.6521 48.7747V49.2868C31.6521 46.1717 29.1097 43.6327 26.0165 43.6327C22.9232 43.6327 20.3809 46.1717 20.3809 49.2868V49.0094C20.4232 42.4805 21.4826 36.1863 23.4317 30.2975C25.8893 22.8725 29.7453 16.0662 34.6817 10.2201C37.1817 7.27568 39.9572 4.58731 42.9656 2.17631C43.3046 1.89894 43.6648 1.62157 44.025 1.3442C43.7072 1.62157 43.4106 1.94161 43.1351 2.30433C42.436 3.24312 42.0334 4.41662 42.0334 5.67546C42.0334 8.81189 44.5758 11.3509 47.669 11.3509C48.8343 11.3509 49.936 10.9882 50.8258 10.3908V10.4121Z" fill="#FF5900"/>
<path opacity="0.5" d="M11.2712 28.868C11.2712 31.9831 8.7712 34.5221 5.69916 34.5434H5.6356C2.52119 34.5434 2.40341e-06 32.0044 2.40341e-06 28.868C2.40341e-06 25.7316 2.54238 23.1926 5.6356 23.1926H5.72035C8.79239 23.2352 11.2712 25.7742 11.2712 28.868Z" fill="#FF5900"/>
<path opacity="0.8" d="M31.6521 49.2868C31.6521 52.4445 29.1097 54.9835 26.0165 54.9835C22.9232 54.9835 20.3809 52.4445 20.3809 49.3081V49.2654C20.3809 46.1503 22.9232 43.6113 26.0165 43.6113C29.1097 43.6113 31.6521 46.1503 31.6521 49.2654V49.2868Z" fill="#FF5900"/>
<path d="M53.3057 5.6968C53.3057 7.44637 52.5218 9.00392 51.3142 10.0281C51.2506 10.0707 51.2082 10.1134 51.1658 10.1561C51.1658 10.1561 50.954 10.3268 50.8481 10.4121C49.937 11.0095 48.8565 11.3722 47.6913 11.3722C44.5769 11.3722 42.0557 8.83323 42.0557 5.6968C42.0557 4.43796 42.4582 3.26446 43.1574 2.32567C43.4116 1.98429 43.7082 1.66425 44.0472 1.36554C44.2379 1.21618 44.4074 1.08817 44.598 0.938813C45.4879 0.341398 46.5684 1.77704e-05 47.7125 1.77704e-05C50.8481 1.77704e-05 53.3481 2.53903 53.3481 5.67546L53.3057 5.6968Z" fill="#FF5900"/>
<g clip-path="url(#clip0_750_112)">
<path d="M80.7202 34.0148H96.6294V15.6226H75.0791V21.0292H90.8773V28.6082H75.0791V46.9521H102.54V53.9196H108.181V15.6226H102.54V41.5938H80.7202V34.0148Z" fill="black"/>
<path d="M120.288 15.6226H114.646V46.8556H136.197V15.6226H130.556V26.3393H120.288V15.6226ZM130.54 31.6977V41.4007H120.272V31.6977H130.54Z" fill="black"/>
<path d="M147.954 15.6226H142.313V53.9196H147.954V27.2565H154.45V21.9143H147.954V15.6226Z" fill="black"/>
<path d="M170.582 45.2465H176.46V37.1043H190.737V31.5368H155.544V37.1043H170.582V45.2465Z" fill="black"/>
<path d="M161.185 40.564H155.544V53.9196H190.737V48.5774H161.185V40.564Z" fill="black"/>
<path d="M203.89 21.1419H230.321V15.6226H198.186V39.0675H230.321V33.6608H203.89V21.1419Z" fill="black"/>
<path d="M231.921 48.3521H197.377V53.9197H231.921V48.3521Z" fill="black"/>
<path d="M173.164 28.1737C180.453 28.1737 185.968 23.4108 185.968 17.103C185.968 10.7953 180.453 6.08055 173.164 6.08055C165.875 6.08055 160.329 10.8275 160.329 17.1191C160.329 23.4108 165.843 28.1898 173.164 28.1898V28.1737ZM173.164 11.0688C177.094 11.0688 180.073 13.6756 180.073 17.1191C180.073 20.5626 177.11 23.2177 173.164 23.2177C169.219 23.2177 166.224 20.5948 166.224 17.1191C166.224 13.6434 169.203 11.0688 173.164 11.0688Z" fill="black"/>
</g>
<defs>
<clipPath id="clip0_750_112">
<rect width="157" height="48" fill="white" transform="translate(75 6.00011)"/>
</clipPath>
</defs>
</svg>