<svg width="379" height="49" viewBox="0 0 379 49" fill="none" xmlns="http://www.w3.org/2000/svg">
<path d="M69.7524 17.6833C68.9369 17.6485 68.0694 17.6485 67.1152 17.6833C66.1609 17.7181 65.2588 17.7529 64.3739 17.8051C64.3392 17.9268 64.3219 18.0312 64.3045 18.1356C64.2872 18.24 64.2525 18.3444 64.2351 18.4661L62.7951 18.6749C62.7604 18.3965 62.7257 18.0486 62.691 17.6137C62.6563 17.1788 62.639 16.7613 62.639 16.3438V11.5425C62.639 11.3164 62.6216 11.1076 62.5696 10.9511C62.5175 10.7771 62.4308 10.6379 62.3093 10.5336C62.1879 10.4118 61.997 10.3074 61.7541 10.2204C61.5112 10.1161 61.1989 10.0291 60.8346 9.94211L61.1816 9.22887C61.4245 9.26367 61.7021 9.28106 62.0144 9.31585C62.3093 9.35065 62.639 9.38544 62.9512 9.42023C63.2809 9.47242 63.6105 9.50721 63.9228 9.5594C64.2525 9.61159 64.5648 9.66378 64.8424 9.71597C64.8077 9.85513 64.7903 9.99429 64.7556 10.1856C64.7209 10.3596 64.7036 10.5336 64.6862 10.7075C64.6689 10.8815 64.6515 11.0381 64.6342 11.1946C64.6342 11.3338 64.6168 11.4556 64.6168 11.5425V12.2558C66.213 12.2036 67.8959 12.134 69.6656 11.9948V10.7075C69.6656 10.464 69.6309 10.29 69.5789 10.1335C69.5268 9.9769 69.4227 9.85513 69.2839 9.73336C69.1451 9.61159 68.9369 9.52461 68.694 9.43763C68.4338 9.35065 68.1215 9.24627 67.7224 9.1419L68.0694 8.32428C68.6767 8.39387 69.336 8.48085 70.0473 8.56783C70.7587 8.65481 71.3833 8.75918 71.9384 8.88095C71.9037 9.02012 71.8864 9.15929 71.8517 9.33325C71.817 9.50721 71.7996 9.68117 71.7649 9.85513C71.7302 10.0291 71.7129 10.1857 71.6955 10.3422C71.6955 10.4814 71.6782 10.6032 71.6782 10.6901V12.4123C72.0252 12.4471 72.4416 12.4819 72.9447 12.4993C73.4479 12.4993 73.8643 12.4993 74.2113 12.4993C74.3848 12.4993 74.5583 12.4993 74.7318 12.4993C74.9052 12.4993 75.0788 12.4993 75.2523 12.4993V9.47242C75.2523 9.02012 75.0441 8.65481 74.6103 8.37648C74.1766 8.09814 73.4999 7.8372 72.5457 7.59366L72.9447 6.79345C73.2917 6.82824 73.6734 6.89782 74.0898 6.95001C74.5062 7.01959 74.9226 7.08917 75.3563 7.15876C75.7727 7.24574 76.1718 7.31532 76.5535 7.38491C76.9352 7.45449 77.2648 7.50668 77.5598 7.55886C77.5251 7.68064 77.5077 7.85459 77.473 8.04595C77.4383 8.2373 77.421 8.42866 77.4036 8.62002C77.3863 8.81137 77.3689 9.00272 77.3516 9.15929C77.3516 9.31585 77.3342 9.43763 77.3342 9.50721V14.8652C77.3342 15.1261 77.3342 15.4392 77.2995 15.7698C77.2648 16.1177 77.2301 16.4656 77.1954 16.8135C77.1607 17.1614 77.126 17.4919 77.074 17.8051C77.0219 18.1182 76.9872 18.3618 76.9525 18.5357L75.4604 18.7445C75.4257 18.6053 75.4084 18.4139 75.3911 18.1704C75.3911 17.9442 75.3564 17.7007 75.339 17.4398C75.3217 17.1788 75.3043 16.9353 75.3043 16.6917C75.3043 16.4482 75.3043 16.222 75.3043 16.0133V13.5605C74.7491 13.5953 74.2113 13.6474 73.6734 13.717C73.1356 13.7866 72.6324 13.891 72.1813 13.9954L71.7302 13.0386V15.1435C71.7302 15.7871 71.6955 16.396 71.6088 16.9179C71.522 17.4572 71.47 17.8921 71.4006 18.2226L69.9259 18.4313C69.9259 18.3096 69.8912 18.1878 69.8738 18.066C69.8565 17.9442 69.8391 17.8051 69.8044 17.6659L69.7524 17.6833ZM69.6656 13.2473C68.8675 13.2125 68.0347 13.2125 67.1846 13.2473C66.3171 13.2647 65.467 13.2995 64.6168 13.3691V15.4392C64.6168 15.8741 64.5995 16.2916 64.5474 16.6743C65.3629 16.6743 66.213 16.6222 67.0979 16.5874C67.9827 16.5526 68.8502 16.483 69.6656 16.4134V13.2473ZM75.2176 26.7118C74.246 26.677 73.2223 26.677 72.1293 26.7118C71.0362 26.764 69.9259 26.7988 68.7808 26.851C68.7461 26.9727 68.7287 27.1119 68.7114 27.2337C68.694 27.3555 68.6593 27.4772 68.642 27.5642L67.2019 27.8077C67.1499 27.512 67.0978 27.1641 67.0631 26.7292C67.0284 26.2943 67.0285 25.8942 67.0285 25.4767V21.7366C67.0285 21.5104 67.0111 21.3017 66.9591 21.1451C66.907 20.9885 66.8376 20.8494 66.6988 20.7276C66.56 20.6058 66.3865 20.5015 66.161 20.4145C65.9354 20.3275 65.6231 20.2405 65.2241 20.1535L65.5884 19.4229C65.8313 19.4577 66.1089 19.4751 66.4039 19.5099C66.6988 19.5447 67.0284 19.5795 67.3407 19.6143C67.6704 19.649 68 19.7012 68.3123 19.7708C68.642 19.823 68.9369 19.8926 69.2319 19.9448C69.1972 20.0666 69.1798 20.2231 69.1451 20.3971C69.1104 20.571 69.0931 20.745 69.0757 20.9016C69.0584 21.0755 69.041 21.2321 69.0237 21.3712C69.0237 21.5104 69.0063 21.6322 69.0063 21.7192V21.9105C70.0126 21.8757 71.0016 21.8409 72.0252 21.8061C73.0315 21.754 74.0725 21.7018 75.1308 21.6148V21.0407C75.1308 20.832 75.0961 20.6406 75.0441 20.4841C74.992 20.3275 74.8879 20.1883 74.7491 20.0665C74.6103 19.9448 74.4021 19.8404 74.1592 19.7534C73.899 19.649 73.5867 19.5621 73.1876 19.4577L73.5173 18.6575C74.1072 18.7271 74.7665 18.814 75.4778 18.9184C76.1891 19.0054 76.8311 19.1098 77.4036 19.2315C77.3689 19.3707 77.3342 19.5099 77.2995 19.7012C77.2648 19.8752 77.2301 20.0492 77.2128 20.2231C77.1954 20.3971 77.1781 20.5536 77.1607 20.7102C77.1607 20.8494 77.1434 20.9711 77.1434 21.0581V24.2938C77.1434 24.9548 77.0913 25.5463 77.0046 26.0682C76.9178 26.59 76.8311 27.0249 76.7617 27.3555L75.3216 27.5816C75.2869 27.4598 75.2696 27.3381 75.2696 27.1989C75.2696 27.0597 75.2523 26.9206 75.2176 26.7466V26.7118ZM75.1308 25.1636V22.7629C74.1245 22.7281 73.1182 22.7629 72.0946 22.7977C71.071 22.8499 70.0473 22.9195 69.0063 22.9891V24.4851C69.0063 24.6939 69.0063 24.8852 68.989 25.0766C68.989 25.2679 68.9543 25.4593 68.9196 25.6333C69.9259 25.5985 70.9669 25.5637 72.0425 25.5289C73.1009 25.4941 74.1419 25.4419 75.1308 25.3723V25.1288V25.1636Z" fill="#003361"/>
<path d="M92.4112 22.8325C92.4112 23.2326 92.4112 23.6327 92.3765 24.0676C92.3592 24.5025 92.3245 24.9374 92.3071 25.3723C92.2724 25.8072 92.2377 26.2247 92.203 26.6248C92.151 27.0249 92.1163 27.3728 92.0469 27.686L90.5027 27.9469C90.468 27.7034 90.4507 27.3902 90.4333 27.0249C90.416 26.6596 90.3986 26.2769 90.3813 25.8768C90.3813 25.4767 90.3813 25.0766 90.3813 24.6765V19.3881C89.8087 19.3881 89.2535 19.4229 88.7157 19.4229C88.1779 19.4229 87.6574 19.4577 87.1716 19.4751C86.6858 19.4751 86.2694 19.5099 85.8877 19.5273C85.506 19.5447 85.211 19.562 84.9681 19.5794C84.413 19.6142 83.8231 19.649 83.1985 19.7186C82.5739 19.7708 82.0013 19.8404 81.4982 19.91L80.7521 18.0138C81.4114 18.0834 82.1054 18.153 82.8515 18.2052C83.5975 18.2573 84.2915 18.3095 84.9508 18.3269C85.3152 18.3269 85.7662 18.3443 86.3214 18.3269C86.8766 18.3269 87.4839 18.3269 88.1605 18.3095C88.8198 18.3095 89.5138 18.2921 90.2251 18.2574C90.9365 18.24 91.6305 18.2226 92.2898 18.2052C92.9491 18.1878 93.5563 18.1704 94.1115 18.153C94.6667 18.1356 95.1178 18.1182 95.4648 18.1008C96.4364 18.066 97.4253 17.9964 98.4316 17.9094C99.4379 17.8225 100.323 17.7181 101.121 17.6137L100.861 19.4055C100.566 19.3881 100.236 19.3707 99.8543 19.3533C99.4726 19.3533 99.0562 19.3359 98.6051 19.3185C98.154 19.3011 97.7029 19.3011 97.2171 19.2837C96.7313 19.2663 96.2629 19.2663 95.7771 19.2663C95.378 19.2663 94.9096 19.2663 94.3197 19.2663C93.7471 19.2663 93.1052 19.2837 92.4112 19.3185V22.8325ZM96.419 13.9432C96.5925 13.9432 96.7487 13.9084 96.8701 13.9084C97.0089 13.9084 97.1304 13.891 97.2345 13.8736L96.9048 15.4218C96.367 15.387 95.7077 15.3696 94.8922 15.3348C94.0941 15.3174 93.244 15.3 92.3592 15.3C91.4743 15.3 90.5895 15.3 89.722 15.3174C88.8545 15.3348 88.0911 15.3522 87.4145 15.3522C87.4145 15.5262 87.3798 15.7349 87.3104 15.9785L85.9397 16.1698C85.8703 15.8915 85.8009 15.561 85.7489 15.1783C85.6968 14.7956 85.6448 14.4128 85.6101 14.0475L85.2631 10.3422C85.2284 10.0813 85.1937 9.87251 85.159 9.71594C85.1243 9.55938 85.0549 9.42021 84.9681 9.33323C84.8814 9.22886 84.7252 9.14188 84.5344 9.0549C84.3436 8.96792 84.0833 8.88094 83.771 8.81135L84.118 8.01114C85.0723 8.13291 86.0959 8.2025 87.2063 8.25468C88.3167 8.30687 89.427 8.30687 90.5721 8.30687C91.7172 8.30687 92.8276 8.25468 93.9553 8.20249C95.0657 8.1503 96.1067 8.08072 97.0783 7.99374C97.0263 8.37645 96.9742 8.81135 96.9222 9.33323C96.8528 9.85511 96.8007 10.377 96.7313 10.9163C96.6793 11.4555 96.6099 11.9948 96.5578 12.5341C96.5058 13.0734 96.4537 13.543 96.4017 13.9606L96.419 13.9432ZM94.7881 9.40282C94.337 9.40282 93.7645 9.38542 93.0879 9.36802C92.3939 9.36802 91.6999 9.36802 90.9885 9.36802C90.2772 9.36802 89.5832 9.40281 88.9413 9.42021C88.282 9.4376 87.7615 9.4724 87.3798 9.50719L87.5706 13.717V14.2563C88.0911 14.2563 88.6463 14.2563 89.2362 14.2389C89.8261 14.2215 90.4333 14.2041 91.0579 14.1867C91.6825 14.1693 92.2898 14.1519 92.9144 14.1345C93.5216 14.1345 94.1115 14.0997 94.6667 14.0649L94.7881 9.38542V9.40282Z" fill="#003361"/>
<path d="M111.982 17.6833C111.166 17.6485 110.299 17.6485 109.345 17.6833C108.39 17.7181 107.488 17.7529 106.603 17.8051C106.569 17.9268 106.551 18.0312 106.534 18.1356C106.517 18.24 106.482 18.3444 106.465 18.4661L105.024 18.6749C104.99 18.3965 104.955 18.0486 104.92 17.6137C104.886 17.1788 104.868 16.7613 104.868 16.3438V11.5425C104.868 11.3164 104.851 11.1076 104.799 10.9511C104.747 10.7771 104.66 10.6379 104.539 10.5336C104.417 10.4118 104.226 10.3074 103.983 10.2204C103.741 10.1161 103.428 10.0291 103.064 9.94211L103.411 9.22887C103.654 9.26367 103.931 9.28106 104.244 9.31585C104.539 9.35065 104.868 9.38544 105.181 9.42023C105.51 9.47242 105.84 9.50721 106.152 9.5594C106.482 9.61159 106.794 9.66378 107.072 9.71597C107.037 9.85513 107.02 9.99429 106.985 10.1856C106.95 10.3596 106.933 10.5336 106.916 10.7075C106.898 10.8815 106.881 11.0381 106.864 11.1946C106.864 11.3338 106.846 11.4556 106.846 11.5425V12.2558C108.442 12.2036 110.125 12.134 111.895 11.9948V10.7075C111.895 10.464 111.86 10.29 111.808 10.1335C111.756 9.9769 111.652 9.85513 111.513 9.73336C111.375 9.61159 111.166 9.52461 110.923 9.43763C110.663 9.35065 110.351 9.24627 109.952 9.1419L110.299 8.32428C110.906 8.39387 111.565 8.48085 112.277 8.56783C112.988 8.65481 113.613 8.75918 114.168 8.88095C114.133 9.02012 114.116 9.15929 114.081 9.33325C114.046 9.50721 114.029 9.68117 113.994 9.85513C113.96 10.0291 113.942 10.1857 113.925 10.3422C113.925 10.4814 113.908 10.6032 113.908 10.6901V12.4123C114.255 12.4471 114.671 12.4819 115.174 12.4993C115.677 12.4993 116.094 12.4993 116.441 12.4993C116.614 12.4993 116.788 12.4993 116.961 12.4993C117.135 12.4993 117.308 12.4993 117.482 12.4993V9.47242C117.482 9.02012 117.273 8.65481 116.84 8.37648C116.406 8.09814 115.729 7.8372 114.775 7.59366L115.174 6.79345C115.521 6.82824 115.903 6.89782 116.319 6.95001C116.736 7.01959 117.152 7.08917 117.586 7.15876C118.002 7.24574 118.401 7.31532 118.783 7.38491C119.165 7.45449 119.494 7.50668 119.789 7.55886C119.754 7.68064 119.737 7.85459 119.702 8.04595C119.668 8.2373 119.65 8.42866 119.633 8.62002C119.616 8.81137 119.598 9.00272 119.581 9.15929C119.581 9.31585 119.564 9.43763 119.564 9.50721V14.8652C119.564 15.1261 119.564 15.4392 119.529 15.7698C119.494 16.1177 119.46 16.4656 119.425 16.8135C119.39 17.1614 119.355 17.4919 119.303 17.8051C119.251 18.1182 119.217 18.3618 119.182 18.5357L117.69 18.7445C117.655 18.6053 117.638 18.4139 117.62 18.1704C117.62 17.9442 117.586 17.7007 117.568 17.4398C117.551 17.1788 117.534 16.9353 117.534 16.6917C117.534 16.4482 117.534 16.222 117.534 16.0133V13.5605C116.978 13.5953 116.441 13.6474 115.903 13.717C115.365 13.7866 114.862 13.891 114.411 13.9954L113.96 13.0386V15.1435C113.96 15.7871 113.925 16.396 113.838 16.9179C113.751 17.4572 113.699 17.8921 113.63 18.2226L112.155 18.4313C112.155 18.3096 112.121 18.1878 112.103 18.066C112.086 17.9442 112.068 17.8051 112.034 17.6659L111.982 17.6833ZM111.895 13.2473C111.097 13.2125 110.264 13.2125 109.414 13.2473C108.546 13.2647 107.696 13.2995 106.846 13.3691V15.4392C106.846 15.8741 106.829 16.2916 106.777 16.6743C107.592 16.6743 108.442 16.6222 109.327 16.5874C110.212 16.5526 111.08 16.483 111.895 16.4134V13.2473ZM117.447 26.7118C116.475 26.677 115.452 26.677 114.359 26.7118C113.266 26.764 112.155 26.7988 111.01 26.851C110.975 26.9727 110.958 27.1119 110.941 27.2337C110.923 27.3555 110.889 27.4772 110.871 27.5642L109.431 27.8077C109.379 27.512 109.327 27.1641 109.293 26.7292C109.258 26.2943 109.258 25.8942 109.258 25.4767V21.7366C109.258 21.5104 109.24 21.3017 109.188 21.1451C109.136 20.9885 109.067 20.8494 108.928 20.7276C108.789 20.6058 108.616 20.5015 108.39 20.4145C108.165 20.3275 107.852 20.2405 107.453 20.1535L107.818 19.4229C108.061 19.4577 108.338 19.4751 108.633 19.5099C108.928 19.5447 109.258 19.5795 109.57 19.6143C109.9 19.649 110.229 19.7012 110.542 19.7708C110.871 19.823 111.166 19.8926 111.461 19.9448C111.427 20.0666 111.409 20.2231 111.375 20.3971C111.34 20.571 111.322 20.745 111.305 20.9016C111.288 21.0755 111.27 21.2321 111.253 21.3712C111.253 21.5104 111.236 21.6322 111.236 21.7192V21.9105C112.242 21.8757 113.231 21.8409 114.255 21.8061C115.261 21.754 116.302 21.7018 117.36 21.6148V21.0407C117.36 20.832 117.325 20.6406 117.273 20.4841C117.221 20.3275 117.117 20.1883 116.979 20.0665C116.84 19.9448 116.631 19.8404 116.389 19.7534C116.128 19.649 115.816 19.5621 115.417 19.4577L115.747 18.6575C116.337 18.7271 116.996 18.814 117.707 18.9184C118.419 19.0054 119.06 19.1098 119.633 19.2315C119.598 19.3707 119.564 19.5099 119.529 19.7012C119.494 19.8752 119.46 20.0492 119.442 20.2231C119.425 20.3971 119.407 20.5536 119.39 20.7102C119.39 20.8494 119.373 20.9711 119.373 21.0581V24.2938C119.373 24.9548 119.321 25.5463 119.234 26.0682C119.147 26.59 119.06 27.0249 118.991 27.3555L117.551 27.5816C117.516 27.4598 117.499 27.3381 117.499 27.1989C117.499 27.0597 117.482 26.9206 117.447 26.7466V26.7118ZM117.36 25.1636V22.7629C116.354 22.7281 115.348 22.7629 114.324 22.7977C113.3 22.8499 112.277 22.9195 111.236 22.9891V24.4851C111.236 24.6939 111.236 24.8852 111.218 25.0766C111.218 25.2679 111.184 25.4593 111.149 25.6333C112.155 25.5985 113.196 25.5637 114.272 25.5289C115.33 25.4941 116.371 25.4419 117.36 25.3723V25.1288V25.1636Z" fill="#003361"/>
<path d="M130.876 10.29C131.483 10.377 132.038 10.5335 132.524 10.7771C133.01 11.0206 133.443 11.299 133.808 11.6643C134.172 12.0296 134.45 12.4297 134.641 12.882C134.831 13.3343 134.936 13.8214 134.936 14.3259C134.936 14.8999 134.814 15.4392 134.554 15.9437C134.294 16.4482 133.947 16.8831 133.495 17.231C133.044 17.5963 132.524 17.8746 131.899 18.0834C131.292 18.2921 130.615 18.3965 129.921 18.3965C129.227 18.3965 128.533 18.2921 127.909 18.0834C127.284 17.8746 126.764 17.5789 126.313 17.231C125.862 16.8657 125.515 16.4308 125.272 15.9437C125.029 15.4392 124.907 14.8999 124.907 14.3259C124.907 13.7866 125.011 13.2821 125.237 12.8124C125.463 12.3427 125.757 11.9252 126.139 11.5773C126.521 11.2294 126.972 10.9336 127.51 10.6901C128.048 10.4466 128.638 10.3074 129.262 10.2552C129.227 10.0638 129.158 9.92469 129.019 9.80291C128.88 9.69854 128.655 9.59416 128.325 9.48979L128.69 8.86353C128.846 8.89832 129.037 8.93312 129.262 8.96791C129.47 9.0201 129.696 9.05488 129.921 9.10707C130.147 9.15926 130.373 9.21145 130.581 9.24624C130.806 9.28104 130.997 9.33322 131.171 9.36802C131.119 9.48979 131.084 9.61156 131.014 9.76812C130.962 9.90729 130.91 10.0812 130.858 10.29H130.876ZM132.819 14.2041C132.819 13.7866 132.749 13.3865 132.593 13.0212C132.437 12.6558 132.229 12.3427 131.969 12.0644C131.708 11.8034 131.414 11.5947 131.067 11.4381C130.72 11.2816 130.355 11.212 129.956 11.212C129.557 11.212 129.175 11.299 128.811 11.4381C128.447 11.5947 128.152 11.8034 127.892 12.0644C127.631 12.3427 127.423 12.6558 127.267 13.0212C127.111 13.3865 127.041 13.7692 127.041 14.2041C127.041 14.639 127.111 15.0391 127.267 15.4044C127.423 15.7697 127.631 16.0828 127.892 16.3438C128.152 16.6047 128.464 16.8135 128.811 16.9526C129.158 17.0918 129.54 17.1614 129.956 17.1614C130.373 17.1614 130.737 17.0918 131.084 16.9526C131.431 16.8135 131.743 16.6047 131.986 16.3438C132.246 16.0828 132.455 15.7697 132.593 15.4044C132.732 15.0391 132.801 14.639 132.801 14.2041H132.819ZM141.702 26.9727C140.817 26.9727 139.915 26.9553 139.013 26.9553C138.111 26.9553 137.208 26.9553 136.341 26.9727C135.473 26.9727 134.641 27.0075 133.86 27.0423C133.079 27.0771 132.35 27.1119 131.708 27.1467C131.188 27.1815 130.824 27.0771 130.598 26.8509C130.39 26.6074 130.268 26.3465 130.268 26.0159V23.3196C130.268 23.0064 130.268 22.7455 130.216 22.5367C130.182 22.3454 130.112 22.1888 129.973 22.0497C129.835 21.9279 129.644 21.8061 129.384 21.7191C129.123 21.6322 128.776 21.5278 128.325 21.4234L128.724 20.6232C128.933 20.658 129.21 20.6928 129.54 20.7276C129.869 20.7798 130.216 20.8145 130.563 20.8667C130.91 20.9015 131.257 20.9537 131.604 20.9885C131.934 21.0233 132.229 21.0755 132.437 21.1103C132.402 21.2842 132.385 21.5452 132.35 21.8931C132.316 22.241 132.298 22.5367 132.298 22.7803V25.3027C132.298 25.581 132.35 25.755 132.437 25.8072C132.524 25.8594 132.715 25.9116 132.992 25.929C133.548 25.929 134.207 25.929 134.97 25.8942C135.734 25.8594 136.532 25.8072 137.365 25.7376C138.18 25.668 139.013 25.5984 139.811 25.5115C140.626 25.4245 141.338 25.3375 141.962 25.2505L141.685 26.9553L141.702 26.9727ZM136.167 6.75862C136.514 6.79341 136.896 6.863 137.312 6.91519C137.729 6.98477 138.145 7.05435 138.579 7.12394C138.995 7.21092 139.394 7.2805 139.776 7.35008C140.158 7.41967 140.487 7.47185 140.782 7.52404C140.748 7.66321 140.73 7.81977 140.696 8.01113C140.661 8.20248 140.644 8.39384 140.609 8.5852C140.574 8.77655 140.557 8.95051 140.54 9.12447C140.54 9.28104 140.522 9.4028 140.522 9.47239V18.3965C140.522 18.727 140.522 19.0923 140.487 19.4577C140.47 19.8404 140.435 20.2057 140.418 20.5884C140.383 20.9711 140.349 21.3364 140.297 21.6843C140.245 22.0323 140.193 22.328 140.158 22.5715L138.666 22.8151C138.631 22.6411 138.614 22.3976 138.596 22.1018C138.579 21.8061 138.562 21.4582 138.544 21.1103C138.527 20.7624 138.51 20.397 138.492 20.0491C138.475 19.7012 138.492 19.3881 138.492 19.1271V9.4376C138.492 8.98531 138.284 8.61999 137.85 8.34165C137.417 8.06332 136.723 7.80238 135.768 7.55883L136.167 6.75862Z" fill="#003361"/>
<path d="M61.2982 45.4157C61.2434 45.4707 61.1836 45.4957 61.1138 45.4957C61.029 45.4957 60.9841 45.4407 60.9742 45.3358L60.9143 44.241C60.8994 43.966 60.8844 43.7161 60.8645 43.5011C60.8445 43.2862 60.8346 43.1612 60.8346 43.1312C60.8346 43.0462 60.8894 43.0062 60.9941 43.0062C61.034 43.0062 61.0689 43.0162 61.1038 43.0362C61.1387 43.0562 61.1586 43.0962 61.1686 43.1562C61.1836 43.2262 61.2235 43.3662 61.2833 43.5711C61.3431 43.7761 61.4528 44.006 61.6074 44.251C61.6971 44.3809 61.8018 44.5109 61.9165 44.6359C62.0311 44.7609 62.1658 44.8758 62.3203 44.9708C62.4749 45.0658 62.6494 45.1458 62.8438 45.2008C63.0383 45.2558 63.2576 45.2858 63.5069 45.2858C63.9207 45.2858 64.2498 45.2258 64.4891 45.1008C64.7284 44.9758 64.9129 44.8359 65.0425 44.6659C65.1672 44.5009 65.2469 44.326 65.2818 44.146C65.3167 43.966 65.3317 43.8161 65.3317 43.7011C65.3317 43.4261 65.2719 43.1912 65.1472 42.9962C65.0226 42.8063 64.8531 42.6313 64.6337 42.4813C64.4143 42.3314 64.1551 42.1964 63.8559 42.0814C63.5568 41.9664 63.2327 41.8415 62.8787 41.7115C62.6494 41.6265 62.4151 41.5315 62.1807 41.4265C61.9464 41.3216 61.737 41.1916 61.5475 41.0416C61.3581 40.8867 61.2085 40.6967 61.0938 40.4717C60.9792 40.2468 60.9193 39.9668 60.9193 39.6369C60.9193 39.197 61.0091 38.8221 61.1935 38.5121C61.378 38.2022 61.6074 37.9473 61.8816 37.7523C62.1558 37.5573 62.4549 37.4124 62.774 37.3174C63.0931 37.2274 63.3873 37.1774 63.6565 37.1774C63.9257 37.1774 64.16 37.2024 64.3645 37.2524C64.5689 37.3024 64.7434 37.3624 64.893 37.4274C65.0425 37.4924 65.1672 37.5523 65.2669 37.6023C65.3666 37.6523 65.4513 37.6773 65.5211 37.6773C65.566 37.6773 65.6059 37.6623 65.6358 37.6373C65.6657 37.6123 65.6957 37.5823 65.7206 37.5523C65.7455 37.5223 65.7754 37.4924 65.8053 37.4674C65.8353 37.4424 65.8751 37.4274 65.92 37.4274C66.0048 37.4274 66.0446 37.4724 66.0446 37.5673C66.0446 37.6373 66.0447 37.7823 66.0546 38.0023C66.0596 38.2222 66.0746 38.4522 66.0895 38.7021C66.1045 38.9271 66.1194 39.127 66.1344 39.312C66.1494 39.4969 66.1593 39.6269 66.1593 39.7019C66.1593 39.7469 66.1444 39.7769 66.1194 39.7919C66.0945 39.8069 66.0596 39.8169 66.0197 39.8169C65.9649 39.8169 65.93 39.8069 65.91 39.7869C65.8901 39.7669 65.8751 39.7219 65.8602 39.6419C65.7505 39.227 65.6258 38.8821 65.4813 38.6021C65.3367 38.3272 65.1672 38.1072 64.9827 37.9423C64.7932 37.7823 64.5888 37.6673 64.3694 37.5973C64.1451 37.5273 63.9108 37.4924 63.6565 37.4924C63.4271 37.4924 63.2078 37.5373 62.9984 37.6273C62.794 37.7173 62.6095 37.8373 62.445 37.9873C62.2854 38.1372 62.1558 38.3122 62.066 38.5121C61.9763 38.7121 61.9264 38.9221 61.9264 39.147C61.9264 39.392 61.9713 39.6019 62.0611 39.7719C62.1508 39.9419 62.2705 40.0818 62.42 40.1968C62.5696 40.3118 62.7441 40.4068 62.9435 40.4867C63.143 40.5667 63.3573 40.6367 63.5867 40.7067C63.9108 40.8067 64.2398 40.9167 64.5788 41.0366C64.9179 41.1566 65.217 41.3116 65.4863 41.5015C65.7555 41.6915 65.9748 41.9264 66.1493 42.2064C66.3238 42.4813 66.4086 42.8313 66.4086 43.2462C66.4086 43.5861 66.3438 43.896 66.2092 44.186C66.0746 44.4759 65.8851 44.7259 65.6358 44.9408C65.3865 45.1558 65.0874 45.3258 64.7384 45.4407C64.3894 45.5607 64.0005 45.6207 63.5717 45.6207C63.1679 45.6207 62.8338 45.5757 62.5746 45.4807C62.3153 45.3907 62.1458 45.3258 62.0611 45.2958C61.9314 45.2358 61.8317 45.1808 61.7669 45.1358C61.7021 45.0908 61.6423 45.0658 61.5874 45.0658C61.5425 45.0658 61.5027 45.0858 61.4777 45.1308C61.4528 45.1708 61.4279 45.2108 61.4029 45.2408L61.2883 45.4157H61.2982Z" fill="#6D6E71"/>
<path d="M69.3851 42.9012C69.3851 43.6611 69.5646 44.236 69.9235 44.6259C70.2825 45.0158 70.8459 45.2108 71.6137 45.2108C72.1222 45.2108 72.5361 45.1408 72.8701 45.0008C73.2041 44.8608 73.4584 44.6609 73.6529 44.3959C73.8473 44.131 73.9769 43.8111 74.0567 43.4311C74.1365 43.0512 74.1714 42.6213 74.1714 42.1414V38.8071C74.1714 38.5471 74.1464 38.3372 74.0966 38.1822C74.0467 38.0272 73.9769 37.9123 73.8922 37.8373C73.8024 37.7623 73.7027 37.7123 73.5831 37.6923C73.4634 37.6723 73.3388 37.6623 73.2091 37.6623C73.0645 37.6623 72.9898 37.6123 72.9898 37.5123C72.9898 37.4524 73.0147 37.4124 73.0645 37.3974C73.1144 37.3824 73.1593 37.3724 73.1992 37.3724C73.3986 37.3724 73.598 37.3724 73.8024 37.3824C74.0068 37.3924 74.1614 37.3924 74.2661 37.3924C74.3209 37.3924 74.4057 37.3924 74.5204 37.3874C74.635 37.3824 74.7547 37.3824 74.8843 37.3824C75.014 37.3824 75.1286 37.3824 75.2333 37.3774C75.338 37.3774 75.4128 37.3724 75.4527 37.3724C75.5674 37.3724 75.6422 37.3874 75.6771 37.4124C75.712 37.4374 75.7269 37.4774 75.7269 37.5223C75.7269 37.6123 75.6721 37.6623 75.5674 37.6623C74.8843 37.6623 74.5453 38.0272 74.5453 38.7571V42.2164C74.5453 42.7413 74.5004 43.2112 74.4057 43.6311C74.311 44.051 74.1514 44.4059 73.9171 44.7059C73.6828 45.0058 73.3687 45.2308 72.9698 45.3857C72.571 45.5457 72.0624 45.6207 71.4492 45.6207C70.7911 45.6207 70.2526 45.5457 69.8388 45.3907C69.425 45.2358 69.0959 45.0208 68.8566 44.7459C68.6173 44.4709 68.4527 44.141 68.363 43.7661C68.2733 43.3912 68.2284 42.9762 68.2284 42.5213V38.3822C68.2284 38.0922 68.1586 37.8973 68.024 37.8023C67.8894 37.7073 67.6949 37.6573 67.4506 37.6573C67.3459 37.6573 67.2711 37.6423 67.2313 37.6173C67.1914 37.5923 67.1714 37.5573 67.1714 37.5173C67.1714 37.4774 67.1814 37.4474 67.2063 37.4174C67.2313 37.3924 67.2911 37.3774 67.3908 37.3774C67.4905 37.3774 67.6451 37.3774 67.8545 37.3824C68.0639 37.3824 68.3879 37.3874 68.8167 37.3874C69.2455 37.3874 69.5845 37.3874 69.8139 37.3824C70.0382 37.3824 70.2077 37.3774 70.3124 37.3774C70.4121 37.3774 70.472 37.3924 70.4919 37.4174C70.5119 37.4424 70.5218 37.4774 70.5218 37.5173C70.5218 37.5573 70.5069 37.5873 70.472 37.6173C70.4371 37.6423 70.3623 37.6573 70.2476 37.6573C70.0532 37.6573 69.9036 37.6773 69.7889 37.7173C69.6743 37.7573 69.5895 37.8123 69.5297 37.8923C69.4698 37.9723 69.4349 38.0672 69.42 38.1872C69.405 38.3072 69.3951 38.4472 69.3951 38.6071V42.9112L69.3851 42.9012Z" fill="#6D6E71"/>
<path d="M77.5666 45.4157C77.2675 45.4157 77.0332 45.4157 76.8637 45.4257C76.6941 45.4357 76.5545 45.4357 76.4498 45.4357C76.2753 45.4357 76.1856 45.3957 76.1856 45.3108C76.1856 45.2108 76.2953 45.1608 76.5196 45.1608C76.7889 45.1608 76.9733 45.0908 77.078 44.9558C77.1827 44.8159 77.2326 44.6259 77.2326 44.3809V38.3822C77.2326 38.0922 77.1628 37.8973 77.0232 37.8023C76.8836 37.7073 76.6941 37.6573 76.4498 37.6573C76.3402 37.6573 76.2704 37.6423 76.2305 37.6073C76.1906 37.5723 76.1706 37.5373 76.1706 37.4974C76.1706 37.4574 76.1806 37.4274 76.2055 37.4024C76.2305 37.3774 76.2803 37.3674 76.3651 37.3674C76.6892 37.3674 76.9833 37.3674 77.2525 37.3574C77.5218 37.3474 77.781 37.3424 78.0403 37.3424C78.2995 37.3424 78.5638 37.3324 78.833 37.3224C79.1072 37.3174 79.4114 37.3124 79.7604 37.3124C80.1094 37.3124 80.4235 37.3524 80.7675 37.4324C81.1115 37.5123 81.4156 37.6423 81.6948 37.8223C81.974 38.0022 82.1984 38.2372 82.3729 38.5221C82.5474 38.8071 82.6371 39.152 82.6371 39.5619C82.6371 39.9718 82.5424 40.2868 82.3629 40.5567C82.1784 40.8267 81.969 41.0466 81.7297 41.2116C81.4904 41.3816 81.2611 41.5065 81.0417 41.5815C80.8173 41.6565 80.6678 41.6965 80.593 41.6965C80.7475 41.7815 80.8772 41.8715 80.9918 41.9614C81.1015 42.0564 81.2162 42.1714 81.3309 42.3114C81.4455 42.4513 81.5801 42.6363 81.7347 42.8563C81.8893 43.0762 82.0837 43.3562 82.323 43.7061C82.4477 43.881 82.5623 44.056 82.682 44.231C82.8016 44.4059 82.9213 44.5609 83.0559 44.6959C83.1905 44.8309 83.3401 44.9458 83.5046 45.0358C83.6692 45.1258 83.8586 45.1708 84.073 45.1708C84.1328 45.1708 84.1777 45.1858 84.2126 45.2108C84.2425 45.2358 84.2575 45.2708 84.2575 45.3108C84.2575 45.4107 84.2076 45.4607 84.1079 45.4607C84.0231 45.4607 83.8935 45.4557 83.709 45.4457C83.5296 45.4357 83.3351 45.4307 83.1307 45.4307C82.8615 45.4307 82.6571 45.4307 82.5175 45.4407C82.3779 45.4507 82.2682 45.4507 82.2034 45.4507L80.7176 43.2962C80.6179 43.1512 80.4982 42.9912 80.3636 42.8113C80.224 42.6363 80.0695 42.4713 79.89 42.3214C79.7155 42.1714 79.5111 42.0464 79.2867 41.9464C79.0624 41.8465 78.8031 41.7965 78.5239 41.7965H78.3644V44.4259C78.3644 44.7109 78.4342 44.9058 78.5688 45.0158C78.7084 45.1258 78.9128 45.1758 79.177 45.1758C79.3316 45.1758 79.4263 45.1908 79.4662 45.2158C79.5061 45.2408 79.526 45.2758 79.526 45.3158C79.526 45.3457 79.5161 45.3757 79.5011 45.4057C79.4861 45.4357 79.4263 45.4507 79.3266 45.4507C79.2169 45.4507 79.0474 45.4507 78.8131 45.4407C78.5787 45.4357 78.2447 45.4307 77.806 45.4307H77.5766L77.5666 45.4157ZM78.3494 41.4815H79.1571C79.3864 41.4815 79.6357 41.4515 79.9049 41.3966C80.1742 41.3366 80.4235 41.2366 80.6528 41.0966C80.8821 40.9566 81.0766 40.7617 81.2361 40.5267C81.3957 40.2918 81.4705 39.9868 81.4705 39.6269C81.4705 39.267 81.4206 38.987 81.3159 38.7371C81.2112 38.4921 81.0816 38.2872 80.927 38.1322C80.7675 37.9723 80.593 37.8573 80.3985 37.7723C80.2041 37.6873 80.0146 37.6373 79.8302 37.6173C79.7304 37.6023 79.6507 37.5923 79.5908 37.5923H78.9826C78.828 37.5923 78.7134 37.6173 78.6336 37.6623C78.5538 37.7073 78.494 37.7673 78.4491 37.8423C78.4092 37.9173 78.3793 38.0023 78.3743 38.1022C78.3693 38.2022 78.3644 38.3072 78.3644 38.4122V41.4815H78.3494Z" fill="#6D6E71"/>
<path d="M87.7375 44.201C87.7375 44.3609 87.7425 44.5059 87.7575 44.6259C87.7674 44.7509 87.8023 44.8509 87.8572 44.9258C87.912 45.0008 87.9918 45.0608 88.0965 45.1008C88.2012 45.1408 88.3558 45.1608 88.5452 45.1608C88.6599 45.1608 88.7347 45.1758 88.7696 45.2008C88.8045 45.2258 88.8194 45.2608 88.8194 45.3008C88.8194 45.3308 88.8095 45.3607 88.7895 45.3907C88.7696 45.4207 88.7097 45.4357 88.61 45.4357C88.5103 45.4357 88.3508 45.4357 88.1364 45.4257C87.922 45.4207 87.5929 45.4157 87.1592 45.4157C86.7254 45.4157 86.4063 45.4157 86.1919 45.4257C85.9776 45.4357 85.818 45.4357 85.7183 45.4357C85.6186 45.4357 85.5588 45.4207 85.5338 45.3907C85.5089 45.3607 85.4989 45.3308 85.4989 45.3008C85.4989 45.2608 85.5189 45.2308 85.5588 45.2008C85.5987 45.1708 85.6685 45.1608 85.7781 45.1608C86.0224 45.1608 86.2219 45.1108 86.3664 45.0108C86.511 44.9108 86.5858 44.7209 86.5858 44.4359V41.8415L84.2874 38.4172C84.1478 38.2172 83.9933 38.0422 83.8138 37.8973C83.6393 37.7523 83.4299 37.6723 83.1906 37.6573C83.1058 37.6523 83.0509 37.6323 83.026 37.5973C83.0011 37.5673 82.9861 37.5373 82.9861 37.5173C82.9861 37.4774 82.9911 37.4474 83.0111 37.4174C83.026 37.3924 83.0709 37.3774 83.1357 37.3774C83.2454 37.3824 83.375 37.3874 83.5396 37.3874H85.3494C85.5089 37.3874 85.6385 37.3874 85.7482 37.3824C85.8529 37.3824 85.9476 37.3774 86.0174 37.3774H86.2069C86.3216 37.3774 86.3814 37.4224 86.3814 37.5173C86.3814 37.5473 86.3665 37.5773 86.3316 37.6123C86.2967 37.6423 86.2418 37.6573 86.167 37.6573C85.9925 37.6573 85.828 37.6823 85.6834 37.7273C85.5388 37.7723 85.464 37.8673 85.464 38.0023C85.464 38.1272 85.489 38.2372 85.5338 38.3372C85.5787 38.4372 85.6435 38.5421 85.7183 38.6471L87.5481 41.3666L89.0887 38.9471C89.1734 38.8071 89.2532 38.6621 89.3379 38.5121C89.4177 38.3622 89.4576 38.2222 89.4576 38.0922C89.4576 37.9623 89.4227 37.8573 89.3529 37.7773C89.2831 37.6973 89.1335 37.6573 88.9042 37.6573C88.8045 37.6573 88.7397 37.6423 88.7048 37.6073C88.6699 37.5723 88.6549 37.5423 88.6549 37.5073C88.6549 37.4724 88.6649 37.4474 88.6848 37.4224C88.7047 37.3974 88.7546 37.3824 88.8394 37.3824C88.8992 37.3824 89.0089 37.3824 89.1684 37.3874C89.328 37.3874 89.5822 37.3924 89.9462 37.3924C90.1755 37.3924 90.36 37.3924 90.5046 37.3874C90.6442 37.3874 90.7988 37.3824 90.9683 37.3824C91.053 37.3824 91.1079 37.3974 91.1278 37.4274C91.1527 37.4574 91.1627 37.4874 91.1627 37.5173C91.1627 37.5473 91.1428 37.5773 91.1029 37.6023C91.063 37.6273 91.0032 37.6473 90.9184 37.6523C90.6592 37.6673 90.4298 37.7823 90.2354 37.9923C90.0409 38.2022 89.8365 38.4822 89.6221 38.8271L87.7475 41.7665V44.201H87.7375Z" fill="#6D6E71"/>
<path d="M93.6356 42.9012C93.6356 43.6611 93.8151 44.236 94.1741 44.6259C94.533 45.0158 95.0964 45.2108 95.8642 45.2108C96.3728 45.2108 96.7866 45.1408 97.1206 45.0008C97.4547 44.8608 97.7089 44.6609 97.9034 44.3959C98.0978 44.131 98.2275 43.8111 98.3072 43.4311C98.387 43.0512 98.4219 42.6213 98.4219 42.1414V38.8071C98.4219 38.5471 98.397 38.3372 98.3471 38.1822C98.2973 38.0272 98.2275 37.9123 98.1427 37.8373C98.053 37.7623 97.9532 37.7123 97.8336 37.6923C97.7139 37.6723 97.5893 37.6623 97.4597 37.6623C97.3151 37.6623 97.2403 37.6123 97.2403 37.5123C97.2403 37.4524 97.2652 37.4124 97.3151 37.3974C97.3649 37.3824 97.4098 37.3724 97.4497 37.3724C97.6491 37.3724 97.8485 37.3724 98.053 37.3824C98.2574 37.3924 98.4119 37.3924 98.5166 37.3924C98.5715 37.3924 98.6562 37.3924 98.7709 37.3874C98.8856 37.3824 99.0052 37.3824 99.1349 37.3824C99.2645 37.3824 99.3792 37.3824 99.4839 37.3774C99.5886 37.3774 99.6634 37.3724 99.7032 37.3724C99.8179 37.3724 99.8927 37.3874 99.9276 37.4124C99.9625 37.4374 99.9774 37.4774 99.9774 37.5223C99.9774 37.6123 99.9226 37.6623 99.8179 37.6623C99.1349 37.6623 98.7958 38.0272 98.7958 38.7571V42.2164C98.7958 42.7413 98.751 43.2112 98.6562 43.6311C98.5615 44.051 98.402 44.4059 98.1676 44.7059C97.9333 45.0058 97.6192 45.2308 97.2203 45.3857C96.8215 45.5457 96.313 45.6207 95.6997 45.6207C95.0416 45.6207 94.5031 45.5457 94.0893 45.3907C93.6755 45.2358 93.3464 45.0208 93.1071 44.7459C92.8678 44.4709 92.7033 44.141 92.6135 43.7661C92.5238 43.3912 92.4789 42.9762 92.4789 42.5213V38.3822C92.4789 38.0922 92.4091 37.8973 92.2745 37.8023C92.1399 37.7073 91.9455 37.6573 91.7012 37.6573C91.5965 37.6573 91.5217 37.6423 91.4818 37.6173C91.4419 37.5923 91.422 37.5573 91.422 37.5173C91.422 37.4774 91.4319 37.4474 91.4569 37.4174C91.4818 37.3924 91.5416 37.3774 91.6413 37.3774C91.741 37.3774 91.8956 37.3774 92.105 37.3824C92.3144 37.3824 92.6385 37.3874 93.0672 37.3874C93.496 37.3874 93.835 37.3874 94.0644 37.3824C94.2887 37.3824 94.4583 37.3774 94.563 37.3774C94.6627 37.3774 94.7225 37.3924 94.7424 37.4174C94.7624 37.4424 94.7724 37.4774 94.7724 37.5173C94.7724 37.5573 94.7574 37.5873 94.7225 37.6173C94.6876 37.6423 94.6128 37.6573 94.4981 37.6573C94.3037 37.6573 94.1541 37.6773 94.0395 37.7173C93.9248 37.7573 93.84 37.8123 93.7802 37.8923C93.7204 37.9723 93.6855 38.0672 93.6705 38.1872C93.6556 38.3072 93.6456 38.4472 93.6456 38.6071V42.9112L93.6356 42.9012Z" fill="#6D6E71"/>
<path d="M101.977 44.066C101.977 44.7959 102.331 45.1608 103.049 45.1608C103.148 45.1608 103.198 45.2058 103.198 45.3008C103.198 45.3408 103.183 45.3708 103.153 45.4007C103.123 45.4257 103.044 45.4407 102.924 45.4407C102.884 45.4407 102.814 45.4407 102.705 45.4357C102.595 45.4357 102.48 45.4307 102.361 45.4307C102.241 45.4307 102.121 45.4307 102.002 45.4257C101.887 45.4257 101.802 45.4207 101.747 45.4207C101.643 45.4207 101.478 45.4207 101.259 45.4307C101.039 45.4407 100.83 45.4407 100.631 45.4407C100.591 45.4407 100.551 45.4307 100.496 45.4157C100.446 45.4007 100.421 45.3658 100.421 45.3108C100.421 45.2108 100.496 45.1608 100.641 45.1608C100.77 45.1608 100.895 45.1508 101.009 45.1258C101.124 45.1008 101.224 45.0508 101.314 44.9758C101.403 44.9008 101.473 44.7859 101.523 44.6359C101.573 44.4859 101.598 44.281 101.598 44.021V38.2072C101.438 37.9823 101.269 37.8373 101.089 37.7673C100.915 37.6973 100.77 37.6573 100.665 37.6423C100.581 37.6273 100.521 37.6123 100.486 37.5973C100.451 37.5823 100.436 37.5523 100.436 37.5074C100.436 37.4474 100.466 37.4074 100.531 37.3924C100.591 37.3774 100.656 37.3674 100.715 37.3674C100.96 37.3674 101.204 37.3674 101.453 37.3774C101.698 37.3824 101.922 37.3874 102.121 37.3874C102.191 37.3874 102.246 37.3874 102.286 37.3824C102.326 37.3824 102.361 37.3774 102.386 37.3774C102.43 37.3774 102.46 37.3824 102.475 37.4024C102.49 37.4174 102.505 37.4324 102.52 37.4474L107.825 43.7561V38.8071C107.825 38.5471 107.8 38.3372 107.75 38.1822C107.7 38.0272 107.631 37.9123 107.546 37.8373C107.456 37.7623 107.351 37.7123 107.237 37.6923C107.117 37.6723 106.992 37.6623 106.863 37.6623C106.718 37.6623 106.643 37.6123 106.643 37.5124C106.643 37.4524 106.668 37.4124 106.718 37.3974C106.768 37.3824 106.813 37.3724 106.853 37.3724C107.052 37.3724 107.252 37.3724 107.451 37.3824C107.65 37.3924 107.805 37.3924 107.91 37.3924C107.965 37.3924 108.049 37.3924 108.174 37.3874C108.299 37.3874 108.423 37.3824 108.558 37.3824C108.692 37.3824 108.817 37.3824 108.937 37.3774C109.056 37.3774 109.136 37.3724 109.171 37.3724C109.286 37.3724 109.361 37.3874 109.4 37.4124C109.44 37.4374 109.46 37.4774 109.46 37.5224C109.46 37.6123 109.405 37.6623 109.301 37.6623C108.957 37.6623 108.687 37.7423 108.488 37.8973C108.289 38.0522 108.194 38.3172 108.194 38.6871V45.4357C108.194 45.5357 108.149 45.5857 108.054 45.5857C108.009 45.5857 107.97 45.5707 107.935 45.5407C107.9 45.5107 107.855 45.4707 107.8 45.4257L101.982 38.5421V44.066H101.977Z" fill="#6D6E71"/>
<path d="M114.541 43.7161C114.471 43.896 114.426 44.046 114.396 44.171C114.371 44.296 114.356 44.4259 114.356 44.5559C114.356 44.7259 114.421 44.8658 114.556 44.9808C114.69 45.0958 114.87 45.1558 115.104 45.1558C115.164 45.1558 115.204 45.1708 115.224 45.1958C115.244 45.2208 115.254 45.2558 115.254 45.2958C115.254 45.3358 115.239 45.3657 115.214 45.3957C115.189 45.4207 115.134 45.4357 115.059 45.4357C115.029 45.4357 114.989 45.4357 114.94 45.4307C114.89 45.4307 114.82 45.4257 114.725 45.4257C114.63 45.4257 114.521 45.4257 114.381 45.4207C114.242 45.4207 114.072 45.4157 113.863 45.4157C113.688 45.4157 113.499 45.4157 113.299 45.4257C113.1 45.4357 112.91 45.4357 112.736 45.4357C112.656 45.4357 112.611 45.4207 112.586 45.3857C112.561 45.3507 112.551 45.3208 112.551 45.3008C112.551 45.2608 112.561 45.2308 112.586 45.2008C112.611 45.1708 112.661 45.1608 112.736 45.1608C112.96 45.1608 113.17 45.0808 113.374 44.9258C113.578 44.7659 113.778 44.4609 113.977 43.996L116.361 38.4272C116.276 38.3522 116.211 38.2822 116.171 38.2222C116.131 38.1622 116.106 38.1122 116.106 38.0822C116.106 38.0572 116.111 38.0422 116.131 38.0222C116.151 38.0022 116.186 37.9823 116.246 37.9523C116.361 37.9073 116.495 37.8123 116.65 37.6773C116.734 37.6023 116.799 37.5373 116.849 37.4824C116.899 37.4274 116.944 37.3774 116.984 37.3224C117.029 37.2624 117.064 37.2224 117.093 37.2024C117.123 37.1824 117.143 37.1724 117.158 37.1724C117.218 37.1724 117.263 37.2474 117.298 37.3974C117.328 37.5473 117.408 37.7723 117.537 38.0722L120.205 44.3909C120.279 44.5659 120.359 44.7009 120.434 44.7959C120.509 44.8858 120.593 44.9608 120.688 45.0158C120.778 45.0708 120.878 45.1058 120.977 45.1258C121.077 45.1458 121.167 45.1558 121.242 45.1658C121.351 45.1758 121.401 45.2158 121.401 45.2908C121.401 45.3208 121.391 45.3558 121.371 45.3907C121.351 45.4257 121.306 45.4407 121.237 45.4407C121.137 45.4407 121.017 45.4407 120.883 45.4307C120.758 45.4307 120.598 45.4307 120.404 45.4257C120.21 45.4257 119.975 45.4207 119.706 45.4207C119.437 45.4207 119.207 45.4207 119.033 45.4257C118.858 45.4257 118.724 45.4307 118.619 45.4307C118.514 45.4307 118.435 45.4307 118.37 45.4357C118.305 45.4407 118.255 45.4407 118.21 45.4407C118.15 45.4407 118.106 45.4257 118.076 45.4007C118.046 45.3757 118.036 45.3408 118.036 45.3008C118.036 45.2608 118.051 45.2308 118.076 45.2008C118.101 45.1758 118.155 45.1608 118.23 45.1608C118.315 45.1608 118.405 45.1608 118.499 45.1558C118.594 45.1558 118.684 45.1358 118.764 45.1058C118.843 45.0758 118.913 45.0308 118.963 44.9708C119.013 44.9108 119.043 44.8309 119.043 44.7209C119.043 44.6309 119.018 44.5059 118.963 44.351C118.908 44.196 118.853 44.046 118.789 43.891L118.215 42.5063H115.019L114.536 43.7161H114.541ZM115.149 42.1614H118.081L116.575 38.7721L115.149 42.1614Z" fill="#6D6E71"/>
<path d="M122.877 45.4157C122.822 45.4707 122.762 45.4957 122.692 45.4957C122.608 45.4957 122.563 45.4407 122.553 45.3358L122.493 44.241C122.478 43.966 122.463 43.7161 122.443 43.5011C122.423 43.2862 122.413 43.1612 122.413 43.1312C122.413 43.0462 122.468 43.0062 122.573 43.0062C122.613 43.0062 122.648 43.0162 122.682 43.0362C122.717 43.0562 122.737 43.0962 122.747 43.1562C122.762 43.2262 122.802 43.3662 122.862 43.5711C122.922 43.7761 123.031 44.006 123.186 44.251C123.276 44.3809 123.38 44.5109 123.495 44.6359C123.61 44.7609 123.744 44.8758 123.899 44.9708C124.053 45.0658 124.228 45.1458 124.422 45.2008C124.617 45.2558 124.836 45.2858 125.086 45.2858C125.499 45.2858 125.828 45.2258 126.068 45.1008C126.307 44.9758 126.492 44.8359 126.621 44.6659C126.746 44.5009 126.826 44.326 126.86 44.146C126.895 43.966 126.91 43.8161 126.91 43.7011C126.91 43.4261 126.85 43.1912 126.726 42.9962C126.601 42.8063 126.432 42.6313 126.212 42.4813C125.993 42.3314 125.734 42.1964 125.435 42.0814C125.135 41.9664 124.811 41.8415 124.457 41.7115C124.228 41.6265 123.994 41.5315 123.759 41.4265C123.525 41.3216 123.316 41.1916 123.126 41.0416C122.937 40.8867 122.787 40.6967 122.672 40.4717C122.558 40.2468 122.498 39.9668 122.498 39.6369C122.498 39.197 122.588 38.8221 122.772 38.5121C122.957 38.2022 123.186 37.9473 123.46 37.7523C123.734 37.5573 124.034 37.4124 124.353 37.3174C124.672 37.2274 124.966 37.1774 125.235 37.1774C125.504 37.1774 125.739 37.2024 125.943 37.2524C126.147 37.3024 126.322 37.3624 126.472 37.4274C126.621 37.4924 126.746 37.5523 126.845 37.6023C126.945 37.6523 127.03 37.6773 127.1 37.6773C127.145 37.6773 127.185 37.6623 127.214 37.6373C127.244 37.6123 127.274 37.5823 127.299 37.5523C127.324 37.5223 127.354 37.4924 127.384 37.4674C127.414 37.4424 127.454 37.4274 127.499 37.4274C127.583 37.4274 127.623 37.4724 127.623 37.5673C127.623 37.6373 127.623 37.7823 127.633 38.0023C127.638 38.2222 127.653 38.4522 127.668 38.7021C127.683 38.9271 127.698 39.127 127.713 39.312C127.728 39.4969 127.738 39.6269 127.738 39.7019C127.738 39.7469 127.723 39.7769 127.698 39.7919C127.673 39.8069 127.638 39.8169 127.598 39.8169C127.543 39.8169 127.509 39.8069 127.489 39.7869C127.469 39.7669 127.454 39.7219 127.439 39.6419C127.329 39.227 127.204 38.8821 127.06 38.6021C126.915 38.3272 126.746 38.1072 126.561 37.9423C126.372 37.7823 126.167 37.6673 125.948 37.5973C125.724 37.5273 125.489 37.4924 125.235 37.4924C125.006 37.4924 124.786 37.5373 124.577 37.6273C124.373 37.7173 124.188 37.8373 124.024 37.9873C123.864 38.1372 123.734 38.3122 123.645 38.5121C123.555 38.7121 123.505 38.9221 123.505 39.147C123.505 39.392 123.55 39.6019 123.64 39.7719C123.729 39.9419 123.849 40.0818 123.999 40.1968C124.148 40.3118 124.323 40.4068 124.522 40.4867C124.722 40.5667 124.936 40.6367 125.165 40.7067C125.489 40.8067 125.818 40.9167 126.157 41.0366C126.496 41.1566 126.796 41.3116 127.065 41.5015C127.334 41.6915 127.553 41.9264 127.728 42.2064C127.902 42.4813 127.987 42.8313 127.987 43.2462C127.987 43.5861 127.922 43.896 127.788 44.186C127.653 44.4759 127.464 44.7259 127.214 44.9408C126.965 45.1558 126.666 45.3258 126.317 45.4407C125.968 45.5607 125.579 45.6207 125.15 45.6207C124.747 45.6207 124.412 45.5757 124.153 45.4807C123.894 45.3907 123.724 45.3258 123.64 45.2958C123.51 45.2358 123.41 45.1808 123.346 45.1358C123.281 45.0908 123.221 45.0658 123.166 45.0658C123.121 45.0658 123.081 45.0858 123.056 45.1308C123.031 45.1708 123.006 45.2108 122.982 45.2408L122.867 45.4157H122.877Z" fill="#6D6E71"/>
<path d="M131.382 44.201C131.382 44.3609 131.387 44.5059 131.407 44.6259C131.422 44.7509 131.457 44.8509 131.517 44.9258C131.577 45.0008 131.662 45.0608 131.776 45.1008C131.891 45.1408 132.046 45.1608 132.235 45.1608C132.35 45.1608 132.425 45.1758 132.459 45.2008C132.494 45.2258 132.509 45.2608 132.509 45.3008C132.509 45.3308 132.499 45.3607 132.479 45.3907C132.459 45.4207 132.4 45.4357 132.3 45.4357C132.2 45.4357 132.036 45.4357 131.806 45.4257C131.577 45.4207 131.243 45.4157 130.804 45.4157C130.365 45.4157 130.056 45.4157 129.842 45.4257C129.633 45.4357 129.478 45.4357 129.378 45.4357C129.279 45.4357 129.219 45.4207 129.194 45.3907C129.169 45.3607 129.159 45.3308 129.159 45.3008C129.159 45.2608 129.179 45.2308 129.219 45.2008C129.259 45.1708 129.328 45.1608 129.438 45.1608C129.682 45.1608 129.877 45.1108 130.011 45.0108C130.151 44.9108 130.221 44.7209 130.221 44.4359V38.3822C130.221 38.0922 130.151 37.8973 130.011 37.8023C129.872 37.7073 129.682 37.6573 129.438 37.6573C129.328 37.6573 129.259 37.6423 129.219 37.6173C129.179 37.5923 129.159 37.5573 129.159 37.5173C129.159 37.4774 129.169 37.4474 129.194 37.4174C129.219 37.3924 129.279 37.3774 129.378 37.3774C129.478 37.3774 129.633 37.3774 129.842 37.3824C130.051 37.3824 130.375 37.3874 130.804 37.3874C131.233 37.3874 131.577 37.3874 131.806 37.3824C132.036 37.3824 132.2 37.3774 132.3 37.3774C132.4 37.3774 132.459 37.3924 132.479 37.4174C132.499 37.4424 132.509 37.4774 132.509 37.5173C132.509 37.5573 132.494 37.5873 132.459 37.6173C132.425 37.6423 132.35 37.6573 132.235 37.6573C132.046 37.6573 131.891 37.6773 131.776 37.7173C131.662 37.7573 131.577 37.8123 131.517 37.8923C131.457 37.9723 131.422 38.0672 131.407 38.1872C131.392 38.3072 131.382 38.4472 131.382 38.6071V44.211V44.201Z" fill="#6D6E71"/>
<path d="M135.177 43.7161C135.107 43.896 135.062 44.046 135.032 44.171C135.007 44.296 134.992 44.4259 134.992 44.5559C134.992 44.7259 135.057 44.8658 135.192 44.9808C135.326 45.0958 135.506 45.1558 135.74 45.1558C135.8 45.1558 135.84 45.1708 135.86 45.1958C135.88 45.2208 135.89 45.2558 135.89 45.2958C135.89 45.3358 135.875 45.3657 135.85 45.3957C135.825 45.4207 135.77 45.4357 135.695 45.4357C135.665 45.4357 135.625 45.4357 135.575 45.4307C135.526 45.4307 135.456 45.4257 135.361 45.4257C135.266 45.4257 135.157 45.4257 135.017 45.4207C134.877 45.4207 134.708 45.4157 134.499 45.4157C134.324 45.4157 134.135 45.4157 133.935 45.4257C133.736 45.4357 133.546 45.4357 133.372 45.4357C133.292 45.4357 133.247 45.4207 133.222 45.3857C133.197 45.3507 133.187 45.3208 133.187 45.3008C133.187 45.2608 133.197 45.2308 133.222 45.2008C133.247 45.1708 133.297 45.1608 133.372 45.1608C133.596 45.1608 133.806 45.0808 134.01 44.9258C134.214 44.7659 134.414 44.4609 134.613 43.996L136.996 38.4272C136.912 38.3522 136.847 38.2822 136.807 38.2222C136.767 38.1622 136.742 38.1122 136.742 38.0822C136.742 38.0572 136.747 38.0422 136.767 38.0222C136.787 38.0022 136.822 37.9823 136.882 37.9523C136.996 37.9073 137.131 37.8123 137.286 37.6773C137.37 37.6023 137.435 37.5373 137.485 37.4824C137.535 37.4274 137.58 37.3774 137.62 37.3224C137.664 37.2624 137.699 37.2224 137.729 37.2024C137.759 37.1824 137.779 37.1724 137.794 37.1724C137.854 37.1724 137.899 37.2474 137.934 37.3974C137.964 37.5473 138.043 37.7723 138.173 38.0722L140.84 44.3909C140.915 44.5659 140.995 44.7009 141.07 44.7959C141.145 44.8858 141.229 44.9608 141.324 45.0158C141.414 45.0708 141.513 45.1058 141.613 45.1258C141.713 45.1458 141.803 45.1558 141.877 45.1658C141.987 45.1758 142.037 45.2158 142.037 45.2908C142.037 45.3208 142.027 45.3558 142.007 45.3907C141.987 45.4257 141.942 45.4407 141.872 45.4407C141.773 45.4407 141.653 45.4407 141.518 45.4307C141.394 45.4307 141.234 45.4307 141.04 45.4257C140.845 45.4257 140.611 45.4207 140.342 45.4207C140.073 45.4207 139.843 45.4207 139.669 45.4257C139.494 45.4257 139.36 45.4307 139.255 45.4307C139.15 45.4307 139.07 45.4307 139.006 45.4357C138.941 45.4407 138.891 45.4407 138.846 45.4407C138.786 45.4407 138.741 45.4257 138.711 45.4007C138.682 45.3757 138.672 45.3408 138.672 45.3008C138.672 45.2608 138.687 45.2308 138.711 45.2008C138.736 45.1758 138.791 45.1608 138.866 45.1608C138.951 45.1608 139.041 45.1608 139.135 45.1558C139.23 45.1558 139.32 45.1358 139.4 45.1058C139.479 45.0758 139.549 45.0308 139.599 44.9708C139.649 44.9108 139.679 44.8309 139.679 44.7209C139.679 44.6309 139.654 44.5059 139.599 44.351C139.544 44.196 139.489 44.046 139.424 43.891L138.851 42.5063H135.655L135.172 43.7161H135.177ZM135.785 42.1614H138.716L137.211 38.7721L135.785 42.1614Z" fill="#6D6E71"/>
<path d="M16.089 23.6926C15.9982 23.6926 15.9156 23.6678 15.8247 23.6678C14.0903 23.6678 13.9994 23.792 13.9994 25.8374V34.1269C13.9994 35.5844 14.1398 35.7335 16.5102 35.7418C19.5579 35.3112 22.0852 33.9199 22.077 30.8559C22.077 26.5331 18.7815 23.9576 16.089 23.6926Z" fill="#003361"/>
<path d="M39.0828 0H9.7707C4.39392 0 0 4.40561 0 9.79669V39.1868C0 43.8905 3.38629 48.0725 7.81325 49C9.53944 48.6688 9.7707 48.0394 9.7707 44.2631V29.2162C9.7707 24.9596 9.68811 24.4959 7.90411 24.2391L6.75607 24.0735V22.2351C6.75607 22.2351 11.5051 22.3013 14.1481 22.2351C10.96 20.347 7.9454 17.4734 7.9454 13.0926C7.89585 7.32888 12.3724 3.34561 19.7561 3.34561C21.441 3.34561 23.5224 3.55265 25.5624 4.15717C26.3222 4.33108 27.4868 4.83623 28.1228 5.1178V12.0657C28.1228 12.0657 26.2314 12.0657 26.2231 12.0161C25.3559 9.41575 23.1755 5.6892 19.5084 5.6892C16.1468 5.6892 14.0985 7.91685 14.0985 10.4675C14.0985 12.8193 16.4029 14.9228 18.9467 16.256L22.3082 18.0448C25.4633 19.7259 29.4855 22.6906 29.4855 28.2969C29.4855 28.7358 29.4029 29.1333 29.3534 29.5557C29.0561 32.098 27.8998 34.2429 25.9919 35.7915C25.6285 36.015 25.2568 36.2138 24.9182 36.3877C24.7612 36.4705 24.7117 36.5616 24.6621 36.661C24.5795 36.8266 24.5713 37.0254 24.7034 37.3235C27.5033 43.021 29.2378 46.2092 31.2778 47.9483C31.9716 48.5114 32.6571 48.8013 33.2352 48.9669H39.0828C44.4596 48.9669 48.8535 44.5613 48.8535 39.1702V9.79669C48.8535 4.40561 44.4596 0 39.0828 0Z" fill="#003361"/>
<path d="M21.8209 45.6875C20.4664 43.435 19.4918 41.3482 18.5172 39.0957C18.2942 38.5988 18.0299 38.2675 17.7243 38.0357C17.0884 38.1019 15.7586 38.1682 15.0731 38.1682C14.6849 38.1682 14.3876 38.1102 14.0325 38.0936C14.0077 38.2096 13.9994 38.3504 13.9994 38.5408V43.7663C13.9994 47.675 14.1976 48.4452 16.1055 48.7847L17.0058 48.9503H24.3483C23.3654 48.2381 22.556 46.8883 21.8127 45.6792L21.8209 45.6875Z" fill="#003361"/>
<path d="M178.071 8.59697C183.229 11.2937 189.523 13.7538 194.966 15.5043L191.274 19.2891C187.204 16.9236 181.005 13.3753 176.083 10.6786C171.303 15.3623 165.104 18.7687 158.904 21.0869L157.532 19.1472C165.198 15.7408 171.398 10.7732 174.569 5.66373C174.9 5.14331 174.758 4.6229 174.569 4.43366C174.048 4.00786 172.013 2.87241 171.54 2.77779L173.007 1.12193C175.326 1.78428 179.538 2.91972 181.762 3.724C180.674 5.42717 179.49 7.13035 178.071 8.59697ZM179.964 26.7641V34.665C179.964 37.9294 179.585 42.4712 179.159 45.0259L174.995 45.7356C174.711 43.6539 174.758 38.9229 174.758 36.2262V26.9061C170.12 26.9534 165.719 27.0953 163.873 27.2372C161.507 27.4738 158.384 27.805 156.254 28.0415L154.409 23.4524C157.106 23.7836 161.176 24.1148 163.826 24.2094C168.275 24.3986 181.478 23.9728 185.832 23.7836C189.855 23.5943 194.918 23.1212 198.231 22.6008L197.616 26.9534C195.155 26.8115 190.517 26.6695 186.494 26.6222C184.933 26.6222 182.709 26.5749 179.964 26.7641Z" fill="#003361"/>
<path d="M221.429 27.6157V28.7039C221.429 30.8801 221.098 34.4284 220.719 36.6047C219.394 36.8412 217.974 36.9832 216.649 37.2197C216.46 34.9488 216.223 31.0221 216.223 29.3662V27.7577C207.374 27.9942 205.765 28.2308 200.89 28.8931C200.275 27.3319 199.613 25.8179 199.045 24.304C202.831 24.6825 207.8 25.1083 210.781 25.1083C225.546 25.1083 235.579 24.5879 243.577 23.4524C243.34 24.8717 243.104 26.3857 242.914 27.7577C240.454 27.663 235.768 27.5211 231.793 27.4738C231.604 27.4738 231.273 27.4738 230.989 27.5211V28.7039C230.989 30.8801 230.61 34.4284 230.232 36.6047C228.859 36.8412 227.534 36.9832 226.114 37.2197C225.925 34.9488 225.688 31.0221 225.688 29.3662V27.5684C225.073 27.6157 224.363 27.6157 223.606 27.6157C222.896 27.6157 222.139 27.6157 221.429 27.6157ZM238.04 39.7272C237.756 41.0519 237.567 42.5658 237.283 43.8905C234.017 43.7012 230.09 43.6539 226.209 43.6539C221.003 43.6539 215.94 43.9378 212.958 43.9378C210.734 43.9378 209.977 42.7077 209.977 41.2884V36.9832C209.977 34.3811 209.74 34.0499 205.859 33.1037C206.143 32.4887 206.522 31.7317 206.806 31.0221C208.652 31.2586 213.573 31.921 215.514 32.2048C215.419 32.9618 215.182 34.7596 215.182 35.9423V39.8691C215.182 41.0992 215.372 40.9572 217.312 40.9572C222.47 40.9572 233.166 40.4841 238.04 39.7272ZM228.906 10.9625C228.954 9.35393 228.906 7.74538 228.954 6.18414C228.386 6.18414 227.629 6.13683 226.871 6.13683C223.369 6.18414 218.069 6.37338 215.514 6.51531C214.283 6.60993 210.687 6.89379 208.415 7.27228C207.61 5.75835 206.759 4.43366 205.954 3.01434C208.226 3.39283 213.763 3.77131 215.04 3.77131C220.293 3.77131 229.853 3.58207 235.059 3.06166C234.68 4.48097 234.112 8.21848 233.828 10.6786C234.254 10.6313 234.633 10.6313 234.917 10.584C234.822 11.6721 234.585 12.9022 234.491 14.0377C231.983 13.943 229.001 13.8957 226.067 13.8957C221.145 13.8957 216.365 13.9903 214.52 14.085C214.472 14.7 214.425 14.9366 214.425 15.4097V18.1063C214.425 19.0999 215.182 18.9106 217.17 18.9106C222.47 18.9106 231.935 18.2483 236.478 17.4913C236.147 18.9579 235.91 20.3299 235.579 21.7492C233.26 21.6546 230.374 21.6073 227.345 21.6073C221.618 21.6073 215.514 21.8912 212.059 21.8912C209.929 21.8912 209.125 20.6611 209.125 19.0999V15.9301C209.125 13.8484 208.746 13.5646 205.765 12.5237C206.096 12.0033 206.333 11.341 206.664 10.8679C209.598 11.1517 213.242 11.2937 216.981 11.2937C221.098 11.2937 225.357 11.1517 228.906 10.9625Z" fill="#003361"/>
<path d="M260.244 10.5367C265.687 11.4356 269.331 15.2204 269.331 19.9041C269.331 25.4395 264.409 29.6028 257.689 29.6028C251.064 29.6028 246.189 25.4395 246.189 19.9041C246.189 15.0312 250.164 11.1044 255.843 10.4421C255.891 9.44855 255.512 8.97545 253.95 8.50235L254.944 6.75186C256.175 7.13034 259.487 7.74538 260.907 8.07655C260.67 8.59697 260.434 9.54317 260.244 10.5367ZM263.936 19.7622C263.936 15.9774 261.049 13.0441 257.784 13.0441C254.518 13.0441 251.773 15.9774 251.773 19.7622C251.773 23.6417 254.518 26.3383 257.784 26.3383C261.096 26.3383 263.936 23.6417 263.936 19.7622ZM280.026 22.0331V31.8737C280.026 35.6585 279.6 42.5185 279.269 45.2625L275.199 45.8302C274.962 43.7959 274.773 38.7337 274.773 35.1854V6.32607C274.773 4.57559 273.211 3.48745 269.141 2.49393L270.088 0.459587C273.117 0.83807 278.275 1.83159 280.594 2.21007C280.263 3.34552 280.026 6.32607 280.026 6.51531V18.9106C282.771 18.6741 286.793 18.2956 289.065 17.7752L288.592 22.0804C286.746 21.9858 282.818 22.0331 280.026 22.0331Z" fill="#003361"/>
<path d="M307.152 17.9644C310.512 21.3234 314.913 25.3448 318.983 28.3727L315.15 32.2048C312.311 28.8458 308.761 24.3513 305.449 20.6138C302.372 25.1083 298.161 29.035 292.482 33.0091L290.873 31.5425C297.971 25.9126 302.94 17.444 304.739 10.7732C305.07 9.6378 304.739 9.6851 304.739 9.30662C304.407 8.69159 303.082 7.93462 301.71 7.41421L302.704 5.71104C305.212 6.32607 309.282 7.65076 311.648 8.3131C310.465 11.9087 309.045 15.0312 307.152 17.9644ZM316.097 2.49393L317.185 0.459587C320.024 0.83807 325.183 1.83159 327.691 2.21007C327.36 3.34552 327.123 6.32607 327.123 6.51531V31.8737C327.123 35.6585 326.697 42.5185 326.224 45.2625L322.296 45.8302C322.059 43.7959 321.87 38.7337 321.87 35.1854V6.32607C321.87 4.57559 320.166 3.48745 316.097 2.49393Z" fill="#003361"/>
<path d="M350.179 10.5367C355.622 11.4356 359.266 15.2204 359.266 19.9041C359.266 25.4395 354.344 29.6028 347.624 29.6028C340.998 29.6028 336.124 25.4395 336.124 19.9041C336.124 15.0312 340.099 11.1044 345.778 10.4421C345.826 9.44855 345.447 8.97545 343.885 8.50235L344.879 6.75186C346.109 7.13034 349.422 7.74538 350.842 8.07655C350.605 8.59697 350.369 9.54317 350.179 10.5367ZM353.871 19.7622C353.871 15.9774 350.984 13.0441 347.719 13.0441C344.453 13.0441 341.708 15.9774 341.708 19.7622C341.708 23.6417 344.453 26.3383 347.719 26.3383C351.031 26.3383 353.871 23.6417 353.871 19.7622ZM369.961 22.0331V31.8737C369.961 35.6585 369.535 42.5185 369.204 45.2625L365.134 45.8302C364.897 43.7959 364.708 38.7337 364.708 35.1854V6.32607C364.708 4.57559 363.146 3.48745 359.076 2.49393L360.023 0.459587C363.052 0.83807 368.21 1.83159 370.529 2.21007C370.198 3.34552 369.961 6.32607 369.961 6.51531V18.9106C372.706 18.6741 376.728 18.2956 379 17.7752L378.527 22.0804C376.681 21.9858 372.753 22.0331 369.961 22.0331Z" fill="#003361"/>
</svg>